<svg xmlns="http://www.w3.org/2000/svg" viewBox="0 0 2781 2457">
  <g fill="none" fill-rule="nonzero">
    <path fill="#9D7265" d="M1609.95 1397.82s-16.57-17.16-7.28-46.37c9.29-29.21 24.41-58.44 24.41-58.44l37.29 8.06s9.07 81.63-25.2 103.8c-34.27 22.17-29.23-7.05-29.23-7.05h.01Z"/>
    <path fill="#B45309" d="M1057.72 884.12s11.72 20.78-4.62 46.71-38.33 50.42-38.33 50.42l-34.06-17.18s11.75-81.29 50.5-94.13c38.74-12.84 26.51 14.18 26.51 14.18ZM1564.6 1434.1c10.63-17.58 28.78-60.77 38.07-58.1 9.29 2.67-1.79 19.8 7.28 21.82 9.07 2.02 22.17-47.37 33.26-46.36 11.09 1.01 15.12 45.35-7.05 78.61-22.17 33.26-60.47 61.48-60.47 61.48l-11.09-57.45Z"/>
    <path fill="#9D7265" d="M1106.25 859.78c-12.83 16.05-36.45 56.51-45.31 52.65-8.87-3.86 4.35-19.4-4.38-22.58-8.73-3.18-28.15 44.08-39.01 41.64-10.86-2.44-9.09-46.93 17.23-77.02 26.31-30.09 67.96-53.08 67.96-53.08l3.51 58.4v-.01ZM1771.73 803.39s-23.3 5.13-43.32-18.08c-20.02-23.21-37-51.4-37-51.4l26.39-27.55s74.3 35.02 75.24 75.82c.95 40.8-21.31 21.21-21.31 21.21Z"/>
    <path fill="#FCD34D" d="M1804.45 873.23c-11.59-16.96-67.02-67.7-60.74-75.05 6.28-7.35 17.28 9.84 22.87 2.42s-33.92-39.81-28.41-49.48c5.51-9.67 47.54 5.04 68.62 39 21.08 33.96 30.89 80.51 30.89 80.51l-33.23 2.59v.01Z"/>
    <path fill="#B45309" d="M774.93 838.52s14.69 18.8 2.39 46.88c-12.3 28.08-30.39 55.56-30.39 55.56l-36.24-11.92s-.48-82.13 35.92-100.6 28.33 10.07 28.33 10.07l-.01.01Z"/>
    <path fill="#9D7265" d="M819.29 807.22c-10.3 17.78-27.62 61.31-36.97 58.81-9.34-2.5 1.42-19.84-7.69-21.68-9.11-1.84-21.27 47.78-32.37 46.98-11.1-.8-15.97-45.06 5.57-78.73s59.29-62.61 59.29-62.61l12.17 57.23ZM748.16 501.92s5.88 23.12-16.67 43.88-50.17 38.65-50.17 38.65l-28.39-25.49s32.59-75.39 73.34-77.66c40.75-2.27 21.88 20.62 21.88 20.62h.01Z"/>
    <path fill="#BE88BA" d="M848.39 454.94c-16.58 12.14-96.97 81.19-104.52 75.15-7.55-6.04 9.27-17.59 1.68-22.94-7.6-5.35-38.69 35.19-48.54 29.99-9.84-5.2 3.5-47.68 36.76-69.84 33.26-22.17 78.1-51.07 78.1-51.07l36.52 38.71Z"/>
    <path fill="#FCD34D" d="M1380.24 1712.19s8.53-22.28 38.93-26.23c30.4-3.95 63.28-2.62 63.28-2.62l8.48 37.2s-70.12 42.78-104.71 21.12c-34.59-21.66-5.98-29.46-5.98-29.46v-.01Z"/>
    <path fill="#B45309" d="M1330.55 1690.32c20.54-.35 66.77-7.96 69.45 1.34 2.68 9.29-17.72 9.02-14.61 17.77 3.12 8.75 51.9-6.42 56.95 3.5 5.04 9.92-30.36 36.92-70.32 35.84-39.96-1.09-84.22-18.51-84.22-18.51l42.75-39.94Z"/>
    <path fill="#FCD34D" d="M1473.1 757.62c-54.53-30.19-155.18-64.12-207.35-56.96-52.16 7.16-191.45 92.23-194.25 104.1-2.8 11.86 24.98 62.24 39.94 61.72 14.96-.52 165.98-76.37 177.85-73.58 11.86 2.8 134.18 44.53 134.18 44.53l49.63-79.81Z"/>
    <path fill="#154194" d="M1847.8 1490.05c-20.07 59.01-73.57 143.6-144.59 194.43-60.33 43.18-203.73 60.46-213.78 53.56-10.05-6.9-17.76-57.42-6.34-67.1 11.42-9.67 150.46-45.36 177.36-64.5 26.9-19.14 96.95-142.09 96.95-142.09l90.4 25.7ZM1923.68 1293.16c24.23-57.43 20.26-202.61.98-287.79-16.38-72.36-74.53-184.83-86.62-186.35-12.09-1.52-51.43 31.1-49.33 45.92 2.11 14.82 44.76 138.14 52.14 170.32 7.38 32.18-4.97 170.13-4.97 170.13l87.81 87.78-.01-.01Z"/>
    <path fill="#BBD1FC" d="M877.65 1338.7c-23.7-57.65-45.79-161.54-32.66-212.53 13.13-50.99 113.7-179.54 125.81-180.95 12.11-1.41 58.94 31.99 56.7 46.79-2.24 14.8-95.01 156.07-93.6 168.17 1.41 12.11 28.76 138.42 28.76 138.42l-85 40.09-.01.01Z"/>
    <path fill="#00A87A" d="M1197.87 1483.87c51.06 35.74 147.58 78.37 200.23 78.39 105.5.04 200.07-71.64 204.1-83.14 4.02-11.5-18.31-64.51-33.24-65.56-14.93-1.05-128.98 58.48-176.69 50.78-31.24-5.04-96.46-111.24-96.46-111.24l-97.93 130.77h-.01Z"/>
    <path fill="#FCD34D" d="M1646.38 907.22c41.68 46.34 77.05 146.27 83.47 198.53 12.86 104.72-46.8 207.3-57.73 212.69-10.93 5.39-66.26-10.34-69.12-25.03-2.86-14.69 42.37-135.13 28.94-181.55-8.8-30.4-52.16-138.32-52.16-138.32l66.6-66.31v-.01Z"/>
    <path fill="#BBD1FC" d="M952.44 1561.17c25.88 56.7 103.43 128.98 148.79 155.7 90.9 53.55 208.77 39.73 218.07 31.86 9.3-7.87 16.94-64.89 4.6-73.37-12.33-8.48-140.82-15.01-178.04-45.84-24.37-20.19-106.06-102.98-106.06-102.98l-87.37 34.64.01-.01Z"/>
    <path fill="#F35F5F" d="M1684.71 981.16c5.25-72.53-14.81-107.78-78.46-169.01-63.65-61.23-128.41-68.85-155.35-46.86-26.93 21.99-42.83 62.28-32.21 84.84 10.61 22.56 59.49 70.48 87.95 107.74 28.47 37.26 51.39 86.85 93.4 85.72 42.02-1.12 82.68-34.99 84.66-62.43h.01Z"/>
    <path fill="#BE88BA" d="M1197.87 488.17c-27.63 6.79-177.13 26.29-290.59 117.16-74.3 59.51-144.64 170.44-139.28 175.78 5.35 5.34 42.44 28.53 56.96 33.88 14.51 5.35 103.79-102.14 160.4-139.52 68.59-45.29 223.46-55.51 223.46-55.51l-10.94-131.79h-.01ZM1278.59 477.88c28.27 3.22 179.04 3.52 303.14 79.21 81.27 49.56 165.16 150.64 160.53 156.61-4.63 5.97-38.47 33.7-52.18 40.86-13.71 7.15-115.95-88.09-176.86-117.96-73.8-36.19-228.71-26.61-228.71-26.61l-5.93-132.11h.01Z"/>
    <path fill="#BBD1FC" d="M1387.69 481.23c-60.8-43.85-102.58-45.33-190.74-22.62-88.16 22.71-129.9 75.41-125.18 110.93 4.72 35.53 31.47 71.28 57.01 74.18 25.54 2.9 94.03-14.05 142.12-18.86 48.09-4.81 104 1.91 125.75-35.56s14.04-91.48-8.96-108.06v-.01Z"/>
    <path fill="#BE88BA" d="M880.5 1304.35c-32.06 65.27-26.68 105.47 9.36 186.1 36.05 80.63 93.23 111.98 126.44 101.69 33.21-10.29 63.05-41.68 61.68-66.58-1.38-24.89-28.72-87.64-41.14-132.85-12.42-45.21-15.07-99.78-54.45-114.49-39.37-14.71-89.77 1.44-101.9 26.13h.01Z"/>
    <path fill="#B45309" d="M1394.88 888.63c18.73-8.45 63.78-21.3 62.24-30.85-1.54-9.55-19.88-.59-20.79-9.84-.92-9.25 49.68-16.35 50-27.48.33-11.13-43.22-20.43-78.89-2.4-35.67 18.04-68.27 52.68-68.27 52.68l55.71 17.88v.01Z"/>
    <path fill="#00A87A" d="M1137.42 1220.51c-12.3-61.1 31.45-173.36 54.04-220.92 22.59-47.56 145.78-154.63 157.93-153.71 12.15.92 51.78 42.62 46.76 56.72-5.02 14.1-122.96 135.14-123.88 147.3-.92 12.15-5.04 154.5-5.04 154.5l-129.81 16.11Z"/>
    <path fill="#FCD34D" d="M1173.32 1170.93c-49.93 52.87-56.69 92.86-46.11 180.54 10.58 87.68 55.93 134.54 90.7 134.54s72.56-21.16 78.61-45.35c6.05-24.19-1.51-92.21 0-139.08 1.51-46.86 15.12-99.77-18.14-125.47-33.26-25.7-86.18-25.18-105.07-5.18h.01Z"/>
    <path fill="#B45309" d="M1226.23 1249.42c-40.44 6.68-70.29 53.67-39.3 100.53 30.99 46.86 107.83 22.68 117.4-11.34 9.58-34.01 8.82-103.55-78.1-89.19ZM971.25 1359.17c-40.44 6.68-70.3 53.67-39.3 100.53 30.99 46.86 107.83 22.68 117.4-11.34 9.58-34.01 8.82-103.55-78.1-89.19Z"/>
    <path fill="#262D38" d="M1252.88 1262.41s-3.89-29.41-41.3-23.82c-37.42 5.6-74.19 57.64-47.09 107.45 27.09 49.81 76.15 47.03 88.39 10.64 12.24-36.38 0-94.27 0-94.27Z"/>
    <path fill="#9D7265" d="M1508.92 854.21c-40.44 6.68-70.3 53.67-39.3 100.53 30.99 46.86 107.83 22.68 117.4-11.34 9.58-34.01 8.82-103.55-78.1-89.19Z"/>
    <path fill="#BE88BA" d="M1874.26 554.74s-22.33 8.39-45.45-11.74c-23.12-20.13-56.81-56.13-56.81-56.13l35.08-20.5s78.52 24.1 85.26 64.35c6.74 40.25-18.08 24.02-18.08 24.02Z"/>
    <path fill="#B45309" d="M1916.58 619.22c-13.89-15.14-75.96-57.48-70.79-65.65 5.18-8.17 18.5 7.28 22.99-.86 4.48-8.14-39.23-34.58-35.15-44.94 4.08-10.36 47.77-1.77 73.46 28.85 25.69 30.62 42.02 75.3 42.02 75.3l-32.53 7.29v.01Z"/>
    <path fill="#9D7265" d="M1225.78 517.1c-40.44 6.68-70.3 53.67-39.3 100.53 30.99 46.86 107.83 22.68 117.4-11.34 9.58-34.01 8.82-103.55-78.1-89.19Z"/>
    <path fill="#00A87A" d="M1840.59 1521.37c62.92-36.46 80.79-72.87 95.61-159.93 14.82-87.06-15.3-144.9-48.63-154.8-33.33-9.9-75.59-.38-88.27 21.09-12.69 21.46-24.81 88.83-39.61 133.32-14.8 44.49-42.91 91.34-18.35 125.44 24.56 34.11 75.44 48.68 99.24 34.89l.01-.01Z"/>
    <path fill="#FCD34D" d="M1846.68 1304.62c-28.27-29.68-83.91-27.94-105.23 24.05-21.32 51.99 41.9 101.91 75.41 90.7 33.51-11.21 90.58-50.95 29.82-114.74v-.01Z"/>
    <path fill="#154194" d="M1484.66 860.43c-11.43 40.93 42.33 104.94 73.53 107.47 64.26 5.22 52.09-61.58 73.24-60.15 21.15 1.43 67.45-.49 50.37-43.27-17.08-42.78-85.94-105.13-112.78-99.33-26.84 5.8-18.21 63.31-28.14 66.58-9.93 3.27-44.79-12.22-56.22 28.7Z"/>
    <path fill="#F35F5F" d="M1005.27 1357.25c5.49 4.31-.5 47.63-14.61 59.22 0 0 48.88 11.59 52.88 43.16 1.87 14.75-24.24 43-74.84 41.49-50.6-1.51-80.83-69.54-54.13-112.37 26.71-42.83 68.53-48.9 90.7-31.51v.01Z"/>
    <path fill="#F35F5F" d="M905.08 1433.32c-22.76-21.85-78.19 20.94-40.9 58.23 37.29 37.29 87.4-13.59 40.9-58.23ZM1423.67 235.53c61.99-6.46 144.28 34.77 190.32 60.31 92.26 51.18 211.59 159.35 209.52 171.36-2.07 12.01-47.33 47.51-60.89 41.18-13.56-6.33-149-109.74-194.45-126.17-29.76-10.76-130.03-53.82-130.03-53.82l-14.47-92.86ZM1214.27 222.33c-64.88-12-162.9 40.07-212.47 61.69-99.33 43.33-213.14 119.97-211.52 132.24 1.62 12.27 36.24 65.82 50.79 60.66 14.55-5.17 154.03-82.5 202.56-95.01 31.78-8.19 156.73-41.49 156.73-41.49l13.91-118.08v-.01Z"/>
    <path fill="#154194" d="M1171.94 231.7c51.63-51.21 91.45-58.94 179.36-50.5 87.91 8.44 135.87 52.63 136.72 87.39.85 34.76-19.39 73.06-43.42 79.69-24.03 6.63-92.22.74-139.04 3.39-46.81 2.65-99.37 17.55-125.88-15.07-26.5-32.62-27.27-85.54-7.74-104.91v.01Z"/>
    <path fill="#BE88BA" d="M1252.85 300.22c-6.57-40.46 28.44-83.74 82.74-69.32 54.3 14.42 55.89 94.96 26.71 114.89-29.18 19.93-95.33 41.4-109.45-45.56v-.01Z"/>
    <path fill="#2D6BE1" d="M1815.55 1325.35c-18.32-10.79-41.31-19.15-47.87 2.02-6.55 21.16 8.56 32.95 28.72 41.67 20.16 8.72 54.42 26.03 65.51 22.41 11.09-3.62 23.18-27 4.03-37.99-19.15-10.98-39.99-21.98-50.39-28.12v.01Z"/>
    <path fill="#9D7265" d="M985.05 1818.83s19.53-13.7 46.94.03c27.41 13.73 53.93 33.21 53.93 33.21l-13.77 35.58s-82.05-3.75-98.62-41.04c-16.57-37.3 11.52-27.77 11.52-27.77v-.01Z"/>
    <path fill="#B45309" d="M927.99 1766.95c17.22 11.2 87.9 36.71 84.93 45.91-2.97 9.2-19.74-2.44-22.05 6.56-2.31 9 46.62 23.7 45.25 34.75-1.37 11.05-45.82 13.63-78.34-9.61-32.52-23.24-59.48-62.44-59.48-62.44l29.68-15.18.01.01Z"/>
    <path fill="#5568C5" d="M637.66 1336.48c-28.35-55.51-21.74-152.83-8.72-239.18 11.06-73.36 68.58-188.26 80.53-190.66 11.95-2.4 53.56 27.27 52.54 42.2-1.02 14.93-42.29 139.53-47.3 172.16-5.01 32.63 4.37 168.54 4.37 168.54l-81.42 46.94ZM659.938 1478.6c-.278 62.33 33.942 150.46 84.502 221.67 42.95 60.49 161.65 132.87 173.4 129.63 11.75-3.25 35.52-48.49 27.87-61.36-7.65-12.87-116.21-101.23-135.4-128.09-19.19-26.86-56.53-156.66-56.53-156.66l-93.842-5.18v-.01Z"/>
    <path fill="#00A87A" d="M605.94 1263.15c-39.75 60.89-39.3 101.45-13.32 185.85 25.98 84.41 78.93 122.48 113.15 116.3 34.22-6.17 67.65-33.71 69.31-58.59 1.66-24.88-17.86-90.48-24.69-136.87-6.83-46.39-2.84-100.87-40.13-120.26-37.29-19.39-89.28-9.48-104.32 13.56v.01Z"/>
    <path fill="#B45309" d="M698.14 1459.41c38.61 13.76 87.5-12.86 83.12-68.87-4.38-56.01-83.31-72.11-108.18-47-24.87 25.1-57.92 86.29 25.06 115.87Z"/>
    <path fill="#9D7265" d="M2249.71 616.64s-22.85 10.17-45.84-10.11c-39.6-34.93-26.5-57.13-26.5-57.13l6.73-25.73s74.65 28.33 82.82 68.32c8.17 39.99-17.21 24.65-17.21 24.65Z"/>
    <path fill="#B45309" d="M2294.31 679.57c-14.42-14.64-77.97-54.73-73.09-63.08 4.88-8.35 18.75 6.62 22.94-1.68 4.19-8.29-40.44-33.16-36.73-43.66 3.71-10.5 47.68-3.47 74.45 26.21 26.77 29.68 44.68 73.75 44.68 73.75l-32.25 8.45v.01ZM1305.66 39.4s-6.72 24.09-37 28.89c-52.16 8.27-76.47-9.54-76.47-9.54V30.74s69.4-39.49 105.43-20.32 8.04 28.97 8.04 28.97v.01Z"/>
    <path fill="#9D7265" d="M1382.57 45.12c-20.47 1.79-91.86 25.23-95.18 16.15-3.33-9.08 17.05-10.24 13.32-18.75-3.72-8.51-51.33 10.05-57.05.5-5.73-9.55 27.7-38.96 67.63-40.69 39.93-1.72 85.31 12.55 85.31 12.55l-14.03 30.24Z"/>
    <path fill="#262D38" d="M1164.54 432.69c-24.98 14.76-55.03 43.19-53.22 90.63 1.82 47.44 55.23 89.77 102.6 90.77 47.37 1.01 160.24-30.48 130.33-138.07-19.66-70.72-135.36-69.54-179.71-43.34v.01Z"/>
    <path fill="#B45309" d="M2054.98 1587.93s-15.56-18.08-4.62-46.71c10.95-28.63 27.71-56.95 27.71-56.95l36.77 10.18s4.39 82.02-31.09 102.2c-35.48 20.18-28.78-8.71-28.78-8.71l.01-.01Z"/>
    <path fill="#9D7265" d="M2012.16 1621.3c9.44-18.25 24.67-62.55 34.12-60.51 9.45 2.05-.47 19.88 8.71 21.29 9.18 1.41 18.97-48.74 30.1-48.471 11.13.271 18.1 44.251-1.81 78.901-19.91 34.66-56.25 65.36-56.25 65.36l-14.88-56.58.01.01Z"/>
    <path fill="#F35F5F" d="M1534.99 1987.13c-54.81 29.67-148.33 39.24-235.26 30.86-108.4-10.45-243.45-107.61-246.13-119.5-2.68-11.89 25.98-54.2 40.93-53.54 14.95.66 174.96 73.94 235.85 75.7 60.89 1.76 159.22-35.65 159.22-35.65l45.39 102.13ZM1654.32 1960.57c27.22-8.28 175.45-35.83 283.83-132.7 70.97-63.43 135.21-178.01 129.58-183.05-5.64-5.04-43.92-26.2-58.71-30.75-14.78-4.56-98.11 107.6-152.62 147.98-66.04 48.93-220.13 67.51-220.13 67.51l18.05 131.01Z"/>
    <path fill="#BE88BA" d="M1438.71 2010.5c67.18 33.26 108.63 27.85 191.86-9.04 83.23-36.89 115.73-95.74 105.24-130.01-10.49-34.27-42.76-65.13-68.43-63.79-25.67 1.34-90.43 29.32-137.08 41.97-46.65 12.65-102.9 15.21-118.2 55.75-15.29 40.54 1.19 92.54 26.61 105.12Z"/>
    <path fill="#9D7265" d="M1592.51 1948.5c38.79-13.24 60.51-64.49 22.24-105.62-38.27-41.13-110.09-4.64-113.94 30.49-3.86 35.13 8.32 103.59 91.7 75.14v-.01Z"/>
    <path fill="#FCD34D" d="M2207.46 1090.95c25.52 56.87 14.02 153.73-3.34 239.32-14.74 72.71-69.34 173.91-81.4 175.7-12.06 1.79-60.76-19.27-58.99-34.13 1.77-14.86 49.27-137.22 55.92-169.56 6.65-32.33-24.83-188.91-24.83-188.91l112.63-22.42h.01ZM2182.69 927.94c3.42-62.24-44.27-155.88-91.18-229.55-39.85-62.58-136.79-136.95-148.69-134.3-11.9 2.65-37.91 46.64-30.93 59.88 6.98 13.24 93 103.06 110.81 130.85 17.81 27.8 66.52 163.21 66.52 163.21l93.46 9.91h.01Z"/>
    <path fill="#2D6BE1" d="M2207.81 1137.17c38.58-93.56 22.17-119.75.48-205.36-21.69-85.61-50.47-105.89-84.95-101.44-34.48 4.44-69.26 30.26-72.17 55.02-2.91 24.76 13.28 91.27 17.76 137.94 4.49 46.67-2.25 100.89 34.02 122.13 36.27 21.24 94.38 17.15 104.87-8.28l-.01-.01Z"/>
    <path fill="#B45309" d="M2125.61 936.51c-37.87-15.69-88.04 8.43-86.48 64.59 1.56 56.16 79.57 76.21 105.67 52.4 26.1-23.82 62.2-83.26-19.2-116.99h.01Z"/>
    <path fill="#262D38" d="M1589.23 1855.19c-24.76-3.51-80.41 1.02-86.79 53.54-5.02 41.3 27.31 56.44 37.84 78.72 10.53 22.28-19.94 76.69 45.73 70.24 65.67-6.45 140.01-66.96 119.67-97.88-20.34-30.91-48.28-15.89-56.32-47.58-8.04-31.7-10.15-49.95-60.13-57.04ZM2119.12 927.67c-24.33 4.39-36.04 130.33-7.89 141.58s78.85-40.35 73.54-79.69c-5.31-39.34-38.45-66.8-65.65-61.89Z"/>
    <path fill="#B45309" d="M478.42 1502.69s23.79 1.87 36.19 29.9c12.4 28.03 27.66 74.92 27.66 74.92l-40.47 3.7s-60.9-55.11-49.94-94.43c10.96-39.31 26.56-14.09 26.56-14.09Z"/>
    <path fill="#9D7265" d="M467.43 1426.35c6.16 19.6 44.43 84.26 36.28 89.47-8.15 5.21-13.67-14.44-21.18-8.97-7.51 5.47 20.87 47.95 12.79 55.6-8.09 7.65-44.02-18.65-54.31-57.27-10.29-38.62-6.13-86.01-6.13-86.01l32.55 7.18Z"/>
    <path fill="#154194" d="M403.94 875.79c1-62.32 52.47-145.17 104.47-215.33 44.18-59.6 136.53-128.11 148.2-124.62 11.67 3.49 46.86 43.21 38.95 55.92-7.9 12.71-102.79 103.4-122.52 129.87-19.73 26.47-57.59 181.62-57.59 181.62l-111.52-27.44.01-.02Z"/>
    <path fill="#FCD34D" d="M1292.87 2149.98s11.35-20.99 42-20.96c30.65.03 79.7 5.09 79.7 5.09l-13.02 38.49s-75.07 33.33-106.56 7.37c-31.49-25.96-2.11-29.99-2.11-29.99h-.01Z"/>
    <path fill="#B45309" d="M1218.63 2129.08c20.41 2.32 95.04-6.46 96.49 3.1 1.45 9.56-18.74 6.64-16.79 15.73 1.96 9.08 52.3.36 56.01 10.85 3.71 10.49-34.89 32.68-74.37 26.42-39.48-6.25-81.11-29.26-81.11-29.26l19.76-26.84h.01Z"/>
    <path fill="#00A87A" d="M689.61 1963.92c-56.57-26.18-111.44-106.82-154.49-182.8-36.58-64.55-61.76-176.74-53.84-186 7.92-9.26 58.5-25.32 66.91-12.94 8.41 12.38 52.85 135.88 69.04 164.65 16.19 28.77 142.67 126.28 142.67 126.28l-70.29 90.82v-.01ZM815.25 2070.69c38.25 49.21 135.68 88.59 219.42 113.42 71.13 21.09 193.09 13.61 200.32 3.8 7.24-9.81-1.99-60.07-15.94-65.48-13.95-5.41-137.8-16.76-169.48-26.05-31.68-9.29-157.29-79.53-157.29-79.53l-77.03 53.84Z"/>
    <path fill="#BBD1FC" d="M659.03 1929.26c32.27 95.92 61.83 104.92 134.37 155.3 72.54 50.38 107.56 46.8 130.67 20.82 23.11-25.98 32.42-68.28 18.37-88.87-14.05-20.6-69.9-60.17-103.91-92.45-34.01-32.28-64.49-77.61-105.8-69.85-41.31 7.76-82.48 48.98-73.71 75.05h.01Z"/>
    <path fill="#B45309" d="M852.71 2026.77c38.87-13 60.91-64.12 22.89-105.49-38.02-41.36-110.06-5.31-114.13 29.79-4.07 35.1 7.69 103.64 91.24 75.7Z"/>
    <path fill="#262D38" d="M863.4 2029.18c15.48-19.28-58.31-122.01-86.94-112.03-28.63 9.98-33.03 82.18-3.21 108.39 29.82 26.2 72.85 25.19 90.15 3.64Z"/>
    <path fill="#BBD1FC" d="M2414.74 2341.14c-40.64 47.25-133.22 77.99-218.07 98.63-72.09 17.54-186.89 11.09-193.64.94-6.74-10.15-8.36-63.19 5.85-67.9 14.21-4.71 145.16-13.69 177.25-21.4 32.1-7.71 160.47-102.71 160.47-102.71l68.14 92.45v-.01ZM2551.79 2249.48c57.79-23.34 122.32-106.29 169.08-180.05 39.73-62.66 65.88-182.01 58.43-191.65-7.45-9.64-58.33-14.51-67.34-2.57-9.02 11.94-53.8 127.97-71.39 155.9-17.6 27.93-119.5 129.55-119.5 129.55l30.73 88.82h-.01Z"/>
    <path fill="#2D6BE1" d="M2373.04 2361.09c101.09-4.81 117.83-30.79 186.12-86.79 68.29-56 74.42-90.67 55.75-120s-56.81-49.85-80.47-41.97c-23.65 7.89-76.98 50.79-117.33 74.67-40.35 23.89-92.29 40.82-96.11 82.67-3.82 41.86 24.56 92.73 52.04 91.42Z"/>
    <path fill="#B45309" d="M2519.79 2201.44c-1.88-40.95-45.03-76.12-95.21-50.85-50.18 25.27-35.2 104.41-2.55 117.92 32.65 13.51 101.8 20.94 97.76-67.07Z"/>
    <path fill="#262D38" d="M2525.03 2191.81c-14.31-20.16-133.3 22.73-131.53 53 1.77 30.27 70.02 54.24 103.38 32.73 33.36-21.52 44.15-63.19 28.15-85.72v-.01Z"/>
    <path fill="#154194" d="M357.28 1033.93c-29.48 54.92-25.98 159.95-14.73 246.56 9.56 73.57 65.84 182.02 77.74 184.67 11.9 2.64 54.11-26.17 53.4-41.12-.72-14.95-40.55-132.77-44.89-165.49-4.35-32.72 8.94-176.02 8.94-176.02l-80.45-48.59-.01-.01Z"/>
    <path fill="#FCD34D" d="M423.23 833.79c-74.61 68.38-70.84 99.06-87.49 185.79-16.64 86.73.82 117.3 33.94 127.89 33.12 10.6 75.56 1.96 88.69-19.24 13.13-21.19 26.66-88.29 42.39-132.46 15.72-44.17 44.8-90.42 20.96-125.03-23.84-34.61-78.21-55.54-98.49-36.95Z"/>
    <path fill="#9D7265" d="M412.61 1050.37c27.65 30.26 83.31 29.68 105.71-21.84 22.4-51.52-39.76-102.76-73.5-92.25-33.74 10.51-91.63 49.05-32.21 114.09Z"/>
    <path fill="#00A87A" d="M1251.54 306.62c-20.42-10.98-15.2-81.05 43.98-89.12 59.18-8.07 88.92 11.99 92.38 45.46 3.46 33.48-8.35 40.49-36.97 38.11-28.62-2.38-75.27 18.51-99.39 5.54v.01Z"/>
    <path fill="#00A87A" d="M1270.04 232.55c6.17-11.56-17.31-47.67-43.4-49.55-26.09-1.88-33.83 26.54-19 41.7 14.84 15.16 52.14 27.07 62.4 7.85ZM1346.06 225.01c-7.41-10.8 11.91-49.3 37.63-54.06 25.72-4.76 36.57 22.61 23.51 39.33-13.06 16.72-48.81 32.7-61.14 14.73Z"/>
    <path fill="#B45309" d="M2269.42 1648.58s-14.76-18.75-2.56-46.87c12.2-28.12 30.18-55.68 30.18-55.68l36.29 11.78s.79 82.13-35.54 100.73c-36.33 18.6-28.37-9.97-28.37-9.97v.01Z"/>
    <path fill="#FCD34D" d="M2196.86 1732.17c10.23-17.82 55.7-113.54 65.06-111.08 9.35 2.46-1.34 19.84 7.77 21.65 9.11 1.81 21.09-47.86 32.2-47.1 11.11.76 16.14 45-5.27 78.75s-50.68 78.36-50.68 78.36l-49.08-20.57v-.01Z"/>
    <path fill="#2D6BE1" d="M1839.57 2161.75c-47.29 40.6-138.41 53.56-190.8 58.77-104.99 10.45-249.07-19.6-254.21-30.65-5.14-11.05-8.4-62.28 6.35-64.8 14.75-2.52 189.64 10.71 236.36-1.65 30.59-8.09 137.54-29.78 137.54-29.78l64.76 68.11ZM1967.25 2079.48c64.16-15.35 132.64-102.7 169.18-142.57 73.21-79.9 146.16-196.11 139.7-206.67-6.46-10.56-59.82-45.46-71.02-34.84-11.2 10.62-107.33 137.88-146.61 169-25.72 20.38-126.43 101.5-126.43 101.5l35.18 113.58Z"/>
    <path fill="#154194" d="M2048.71 2021.58c-13.3 71.49-41.63 100.51-118.71 143.63-77.08 43.11-141.67 34.08-162.15 5.99-20.49-28.09-25.65-71.1-9.67-90.24 15.98-19.14 75.4-53.11 112.37-81.95 36.97-28.83 71.71-71 112.07-59.27 40.36 11.73 71.12 54.8 66.09 81.84Z"/>
    <path fill="#FCD34D" d="M1943.19 2011.31c28.44 29.52 24.3 85.04-28.55 104.09-52.85 19.05-100.01-46.25-87.37-79.24 12.64-33 54.8-88.31 115.92-24.85Z"/>
    <path fill="#F35F5F" d="M1832.93 2053.41c6.64-12.74 39.91-14.67 52.44-4.85 0 0 .63-43.82 26.77-53.19 12.21-4.38 41.2 12.52 49.48 55.89 8.27 43.38-43.95 81.98-85.47 67.33-41.52-14.65-54.59-43.39-43.22-65.19v.01Z"/>
    <path fill="#262D38" d="M491.93 981.05c11.73-9.06-13.1-47.63-22.23-48.03-9.13-.4-12.7 9.92-8.73 21.43 3.97 11.51 22.23 33.34 30.96 26.59v.01ZM443.44 1044.49c1.93-14.69-42.87-24.55-49.62-18.4-6.76 6.15-2.01 15.99 8.92 21.36 10.93 5.37 39.27 7.98 40.71-2.96h-.01Z"/>
    <path fill="#0F131F" d="M468.91 985.81c-.22-5.34-25.31-36.4-38.85-40.63-13.54-4.22-17.32 1.81-18.61 8.32-1.29 6.51 14.99 19.76 25.71 28.81 10.72 9.05 32.54 22.27 31.75 3.49v.01Z"/>
    <path fill="#262D38" d="M443.26 1014.15c7.3-12.21-32.04-34.46-44.13-40.75-10.59-5.51-23.01 10.32-11.64 21.06 11.36 10.74 48.72 31.49 55.77 19.68v.01ZM392.61 898.31c-11.21 21.7 11.27 72.67 57.58 53.46 35.99-14.93 35.32-63.15 4.99-75.63-30.33-12.48-48.58-4.88-62.57 22.17Z"/>
    <path fill="#262D38" d="M332.2 1009.39c-11.21 21.7 11.27 72.67 57.58 53.46 35.99-14.93 35.32-63.15 4.99-75.63-30.33-12.48-48.58-4.88-62.57 22.17Z"/>
    <path fill="#BE88BA" d="M1953.29 216.44c59.02 20.04 119.62 83.28 170.48 154.28 43.2 60.31 105.05 151.57 98.15 161.62-6.9 10.05-54.76 46.43-64.44 35.01-9.68-11.42-75.75-93.31-119.77-152.08-19.79-26.42-133.13-122.89-133.13-122.89l48.72-75.93-.01-.01ZM1803.99 108.49c-41.03-46.92-134.27-62.46-219.3-82.4-72.23-16.94-210.26-32.38-216.92-22.17-6.66 10.21-3.36 58.48 10.89 63.07 14.25 4.59 164.06 40.1 196.22 47.55 32.16 7.45 144.91 59.62 144.91 59.62l84.2-65.66v-.01Z"/>
    <path fill="#2D6BE1" d="M2019.26 249.05c-50.74-87.57-76.68-93.31-153.94-136.09-70.93-39.27-115.84-24.25-133.31 5.81s-28.64 59.51 5.64 87.87c19.21 15.89 66.99 58.44 106.75 83.29 39.76 24.85 78.67 63.2 117.6 47.36 38.93-15.84 71.06-64.44 57.27-88.24h-.01Z"/>
    <path fill="#9D7265" d="M1810.03 192.1c-35.5 20.49-46.91 74.98-1.4 107.93 45.5 32.96 108.91-16.73 105.9-51.94-3.01-35.21-28.19-100.03-104.5-55.99Z"/>
    <path fill="#F35F5F" d="M1916.91 2105.32c-6.82 8.93 12.8 94.58 56.42 68.28 27.75-16.74-32.27-99.86-56.42-68.28Z"/>
    <path fill="#00A87A" d="M2443.16 1171.29c22.93 57.96-12.04 143.63-33.24 228.35-18.01 71.97-67.1 191.45-79.22 192.69-12.12 1.25-50.72-32.25-48.28-47.02 2.44-14.77 36.28-145.44 44.38-177.44 8.1-32 30.83-157.62 30.83-157.62l85.53-38.96ZM2457.39 1049.57c13.66-60.82-17.09-161.51-51.18-241.92-28.96-68.31-88.73-177.64-100.9-176.993-12.17.653-61.09 28.943-56.39 43.153 4.7 14.21 40.13 70.39 80.11 178.13 11.48 30.95 37.83 172.42 37.83 172.42l90.54 25.22-.01-.01Z"/>
    <path fill="#F35F5F" d="M2454.62 1258.96c47.09-51.12 54.71-90.85 48.48-178.83-6.23-87.98-45.39-136.36-76.79-137.56-31.39-1.19-66.32 18.66-72.7 42.62-6.38 23.96-2.14 92.2-5.28 138.98-3.14 46.78-17.44 99.18 11.62 126 29.05 26.82 76.85 28.12 94.66 8.78l.01.01Z"/>
    <path fill="#B45309" d="M2424.3 1043.95c-34.75-21.73-88.22-6.24-95.97 49.41s65.88 88.32 95.56 69.14c29.68-19.18 75.1-71.84.4-118.55h.01Z"/>
    <path fill="#262D38" d="M2405.01 1026.36c-21.49-5.66-37.32 4.05-37.38 17.43-.06 13.38 17.76 18.19 38.12 20.95 20.37 2.75 34.16 11.93 42.02 5.65 7.87-6.28 16.63-28.39-42.76-44.02v-.01ZM2398.65 1172.74c22.19 1.2 35.73-11.5 33.09-24.62-2.64-13.12-21.07-14.23-41.57-12.81-20.51 1.42-33.16-7-39.6.74-6.43 7.74-13.25 33.39 48.08 36.7v-.01Z"/>
    <path fill="#FCD34D" d="M362.85 508.74s16.54 18.76 4.06 46.77c-21.49 48.24-46.59 42.38-46.59 42.38l-26.57 1.27s4.71-79.71 40.42-99.46c35.71-19.76 28.67 9.05 28.67 9.05l.01-.01Z"/>
    <path fill="#B45309" d="M409.56 447.37c-9.65 18.13-28.91 90.77-38.34 88.61-9.43-2.16.71-19.87-8.46-21.39-9.17-1.52-19.55 48.51-30.67 48.11-11.12-.4-17.57-44.46 2.75-78.88 20.32-34.42 57.02-64.69 57.02-64.69l17.71 28.24h-.01Z"/>
    <path fill="#FCD34D" d="M744.21 107.84c-26.19 11.11-154.11 66.85-251.62 174.66-63.85 70.6-146.18 170.94-140.04 175.35 6.14 4.41 41.83 31.94 57.01 34.91 15.18 2.97 121.37-107.54 171.29-153.47 60.49-55.66 195.19-103.09 195.19-103.09l-31.83-128.36ZM783.09 109.44c43.2-44.93 132.37-73.81 218.24-89.72C1074.28 6.2 1213.27-4.4 1219.44 6.11c6.17 10.51-8.27 59.54-22.72 63.45-14.44 3.91-157.29 33.05-189.77 38.97-32.48 5.92-152.9 62.53-152.9 62.53l-70.97-61.62h.01Z"/>
    <path fill="#00A87A" d="M848.39 65.55c-10.96-5.06-94.01 1.34-168.15 49.11-74.15 47.77-97.74 105.37-83.69 133.47 14.05 28.1 48.25 49.17 72.33 43.24s81.87-42.46 124.39-62.2c42.53-19.74 95.35-32.41 104.89-70.78 9.55-38.37-38.82-87.78-49.78-92.84h.01Z"/>
    <path fill="#B45309" d="M686.4 201.14c-2.34 40.92 36.95 80.35 89.47 60.38 52.52-19.97 45.76-100.23 14.67-117.04-31.09-16.8-99.1-31.31-104.14 56.65v.01Z"/>
    <path fill="#154194" d="M804.94 193.31s24.45-16.8 2.49-47.61-85.02-39.98-117.12 6.76c-32.1 46.74-7.38 89.2 30.6 83.61 37.98-5.59 84.02-42.76 84.02-42.76h.01Z"/>
    <path fill="#262D38" d="M1793.24 192.34c-17.65 17.69-4.16 60.33 39.52 57.95 0 0-3.34 41.41 41.3 49.22 39.33 6.88 68.04-47.25 59.54-78.96-10.23-38.17-77.01-91.73-140.36-28.22v.01Z"/>
    <path fill="#262D38" d="M1816.26 135.1c-26.33 11.08-7.1 51.72 19.7 40.56 26.8-11.16 15.49-55.37-19.7-40.56ZM1932.56 235.92c-26.33 11.08-7.1 51.72 19.7 40.56 26.8-11.16 15.49-55.37-19.7-40.56ZM1921.77 155.15c-20.31-20.08-50.5 13.22-29.93 33.72 20.56 20.49 57.08-6.87 29.93-33.72Z"/>
    <path fill="#9D7265" d="M217.12 1620.87s23.86.21 38.18 27.31c14.32 27.1 24.57 58.37 24.57 58.37l-31.89 20.95s-64.59-50.74-56.38-90.72c8.2-39.98 25.52-15.9 25.52-15.9v-.01Z"/>
    <path fill="#FCD34D" d="M197.26 1511.98c7.51 19.12 53.77 114.47 46 120.23-7.77 5.76-14.64-13.45-21.75-7.47-7.11 5.98 24.16 46.39 16.62 54.58-7.53 8.19-45.21-15.54-58.16-53.36-12.95-37.82-29.46-88.54-29.46-88.54l46.75-25.44Z"/>
    <path fill="#BE88BA" d="M98.8 975.7c-9.81-61.55 26.89-145.96 49.89-193.31 46.1-94.9 133.59-227.69 145.7-226.28 12.11 1.41 50.57 29.16 44.98 43.04-5.59 13.88-88 178.03-101.95 224.3-9.13 30.3-46.69 132.76-46.69 132.76l-91.94 19.48.01.01ZM65.66 1098.87c-28.15 59.67-2.81 167.73 5.46 221.17 16.56 107.1 61.64 236.69 73.92 238.25 12.28 1.56 72.89-18.25 71.6-33.64-1.29-15.38-40.48-169.98-40.2-220.09.18-32.82-.14-162.13-.14-162.13l-110.63-43.57-.01.01Z"/>
    <path fill="#F35F5F" d="M68.72 1192.47c-46.35-56.04-50.46-96.38-34.14-183.18C50.9 922.5 99.24 878.71 133.93 881c34.69 2.29 71.01 25.89 75.46 50.42 4.44 24.53-7.57 91.92-9.14 138.78-1.57 46.86 8.53 100.55-26.35 124.01-34.88 23.46-87.65 19.46-105.18-1.74Z"/>
    <path fill="#FCD34D" d="M144.24 1118.06c-40.89 2.9-80.84-35.86-61.59-88.64s99.6-47.11 116.83-16.26c17.22 30.86 32.65 98.67-55.23 104.9h-.01Z"/>
    <path fill="#00A87A" d="M151.01 1125.71c36.14-22.34 40-105.84 18.78-128.85-43.71-47.39-80.04 9.97-94.62-5.42-14.58-15.39-49.93-45.35-66.36-2.33-16.43 43.03-8.06 135.55 15.6 149.48 23.66 13.93 56.3-34.21 65.82-29.88 9.52 4.33 24.65 39.34 60.79 17h-.01Z"/>
    <path fill="#9D7265" d="M941.62 2393.66c20.19 3.78 95.26.4 96.02 10.04.76 9.64-19.17 5.28-17.87 14.48 1.3 9.2 52.14 4.12 55.09 14.86 2.95 10.73-37.15 30.08-76.08 21-38.93-9.08-78.8-35.03-78.8-35.03l21.64-25.35Z"/>
    <path fill="#F35F5F" d="M517.46 2176.05c18.45 21.66 109.94 127.02 242 187.76 86.48 39.78 206.87 88.28 209.24 81.1 2.37-7.18 17.95-49.48 16.23-64.85-1.72-15.37-138.95-83.59-197.73-117.47-71.22-41.04-156.81-155.36-156.81-155.36l-112.94 68.81.01.01ZM448.75 2083.25c-55.81-27.76-110.07-104.19-150.96-181.35-34.74-65.55-85.02-177.41-76.84-186.44 8.18-9.04 57.81-27.52 65.87-14.91 8.06 12.61 78.64 140.17 94.01 169.39 15.38 29.21 105.45 127.16 105.45 127.16l-37.54 86.16.01-.01Z"/>
    <path fill="#FCD34D" d="M376.73 2026.3c-1.55 11.97 40.01 97.08 107.79 153.52 67.78 56.44 112.73 83.08 135.33 61.26 22.6-21.82 49.54-82.15 36.67-103.35-12.87-21.2-65.03-65.39-96.6-100.06-31.57-34.67-70.06-89.05-109.52-86.67-39.47 2.38-72.13 63.33-73.67 75.3Z"/>
    <path fill="#9D7265" d="M565.2 2148.03c39.75-10.02 65.59-59.32 30.82-103.45-34.78-44.13-109.34-13.64-116.06 21.05-6.72 34.69-.19 103.93 85.24 82.39v.01Z"/>
    <path fill="#262D38" d="M513.39 2036.51c-26.74-11.27-67.48-18.46-104.5 11.26-37.02 29.72-39.19 97.84-11.77 136.48 27.41 38.64 119.95 110.53 188.54 22.41 45.08-57.93-24.8-150.15-72.27-170.15Z"/>
  </g>
</svg>