<?xml version="1.0" encoding="UTF-8"?><svg id="uuid-5d123ead-2608-4b79-be4e-1b5689fc6290" xmlns="http://www.w3.org/2000/svg" viewBox="0 0 2871.23 2347.26"><defs><style>.uuid-a39eac87-ae0f-4df6-aeee-aaf4fe82dd24{fill:none;}.uuid-e8e2872a-4fb0-4927-a10a-6316ebaf9fc1{fill:#00a87a;}.uuid-98a0dcf3-c1ef-46b8-9991-eb1e5378dc5b{fill:#f35f5f;}.uuid-76221d50-6f7a-48d1-bdee-164fb5fb93f9{fill:#fcd34d;}.uuid-394b1f68-46f8-46ab-afcc-a8b0b6291a5b{fill:#9d7265;}.uuid-9213d468-34b2-4a12-81fc-981aa45abbc4{fill:#b45309;}.uuid-a121f20b-b55f-417e-9439-6600f80a32ce{fill:#bbd1fc;}.uuid-46e07fbd-14a3-423e-8bdd-ae0e51d71b6d{fill:#be88ba;}.uuid-d38653b6-221f-4f1e-88a7-aed294046270{fill:#154194;}.uuid-9584eb64-ef49-4ca6-9d9e-568c64f27d17{fill:#0f131f;}.uuid-647325cb-ba26-49dd-a5bc-57d2147b4520{fill:#5568c5;}.uuid-b1bcb32e-30dd-4df7-befd-43c206b2953a{fill:#2d6be1;}.uuid-a060e095-8253-49a9-b014-78407b917f72{fill:#262d38;}</style></defs><path class="uuid-a39eac87-ae0f-4df6-aeee-aaf4fe82dd24" d="m1792.95,1404.82s-1.77-1.84-3.83-5.33c.15,2.64,1.03,4.7,3.83,5.33Z"/><path class="uuid-a39eac87-ae0f-4df6-aeee-aaf4fe82dd24" d="m2871.23,0H0v2347.26h896.77c-51.27-29.28-94.67-63.73-127.79-93.8-8.43-2.42-17.91-6.77-28.45-12.88-63.69,42.86-136.61-15.77-160.41-49.33-22.68-31.97-25.08-84.1-4.28-117.99-11.01-20.19-16.7-35.4-16.11-39.96.11-.85.38-1.95.8-3.25-29.41-34.44-56.7-77.68-79.74-121.15-34.74-65.55-85.02-177.41-76.84-186.44,1.44-1.59,4.17-3.47,7.72-5.43-15.64-15.67-35.41-39.58-37.59-62-4.47-6.6-8.36-14.01-11.11-22.07-7.87-22.99-17.06-50.76-23.06-68.99-5.25,1.13-9.49,1.64-11.88,1.34-12.28-1.56-57.35-131.16-73.92-238.25-5.5-35.54-18.54-95.23-18.39-148.79-6.89-10.23-12.32-20.17-16.44-30.28-4.1.47-8.11-.16-11.89-2.39-23.66-13.93-32.03-106.45-15.6-149.48,8.77-22.98,22.94-25.14,36.46-19.82,15.33-43,39.27-70.6,62.23-82.16,10.89-39.54,28.22-78.04,41.2-104.76,46.1-94.9,133.59-227.69,145.7-226.28,1.58.18,3.6.82,5.92,1.8,4.61-18.71,12.32-39.34,25.07-51.63,2.11-7.59,5.19-15.24,9.46-22.47,5.29-8.96,11.69-17.63,18.26-25.56-.2-.15-.39-.28-.55-.4-6.14-4.41,76.19-104.75,140.04-175.35,36.98-40.88,78.32-74.27,116.84-100.58,14.04-22.01,37.25-45.64,70.81-67.26,74.15-47.77,157.2-54.17,168.15-49.11,0,0,0,0,0,0,44.23-20.85,99.23-35.88,152.94-45.83,72.95-13.52,211.94-24.12,218.11-13.61,1.32,2.25,1.69,6.27,1.33,11.23,19.79-7.87,46.13-15.41,66.52-10.69,7.51-2.36,15.61-3.95,24-4.31,18.9-.82,39.02,1.95,54.97,5.09.43-1.42.93-2.61,1.52-3.51,6.66-10.21,144.69,5.23,216.92,22.17,72.37,16.97,150.68,30.76,197.69,63.42,21.74-1.54,49.44,4.89,82.94,23.44,77.26,42.78,103.21,48.52,153.94,136.09,1.44,2.49,2.38,5.26,2.86,8.23,35.8,29.51,70.55,70.02,101.65,113.44,43.2,60.31,105.05,151.57,98.15,161.62-1.11,1.61-3.27,3.9-6.15,6.56,18,10.22,38.65,25.03,47.49,42.72,6.61,4.28,12.99,9.51,18.61,15.75,9.21,10.21,17.37,22.13,24.12,33.37,13.55,3.05,71.77,109.79,100.23,176.92,19.55,46.12,38,98.92,47.61,147.03,23.36,19.54,44.81,62.29,49.27,125.45,6.23,87.98-1.39,127.71-48.48,178.83-2.61,2.83-5.87,5.2-9.6,7.13-8.19,41.78-23.65,87.8-35.09,133.54-18.01,71.97-67.1,191.45-79.22,192.69-.01,0-.02,0-.03,0-3.06,20.78-9.64,45.8-23.77,59.57-2.36,7.62-5.72,15.29-10.28,22.48-9.53,15.02-20.61,32.18-29.97,46.61,4.68,3.72,8.12,7.02,9.48,9.24,6.46,10.56-66.48,126.77-139.7,206.67-21.4,23.35-53.76,62.99-89.79,94.91-10.81,49.06-30.45,77.13-71.88,105.96,7.15,14.91,8.65,29.74-1.43,35.82-17.38,10.48-30.94,3.18-40.55-9.95-.92.52-1.84,1.04-2.77,1.56-56.43,31.56-106.17,35.17-136.8,23.82-47.39,19.77-106.21,27.69-144.43,31.49-104.99,10.45-249.07-19.6-254.21-30.65-1.2-2.59-2.31-7.39-3.1-13.24-18.98,7.04-60.48,19.89-86.77,9.08-7.93.86-16.3.82-24.71-.51-14.61-2.31-29.5-6.92-42.48-11.81.15,6.6-.61,11.95-2.51,14.52-7.24,9.81-129.19,17.28-200.32-3.8-50.76-15.05-106.55-35.45-151.14-60.14-21.48-.23-50.09-11.6-90.13-39.4-66.84-46.42-97.19-57.7-126.79-134.23-48.3-34.48-94.3-103.58-131.49-169.21-36.58-64.55-61.76-176.74-53.84-186,.65-.75,1.58-1.55,2.74-2.38-14.55-16.72-32.84-42.12-33.45-64.77-4-6.9-7.36-14.56-9.55-22.78-3.81-14.29-5.63-29.78-6.43-43.62-5.97,2.82-11.17,4.29-14.29,3.59-11.9-2.64-68.17-111.09-77.74-184.67-6.82-52.5-10.79-111.77-6.3-162.54-7.29-16.95-9.22-42.02-3.8-79.09-3.98-10.56-4.21-21.83-.26-29.47,2.41-4.67,4.96-8.75,7.67-12.25,11.4-64.14,14.97-95.56,67.18-147.88,11.94-58.13,56.46-128.2,101.37-188.8,44.18-59.6,136.53-128.11,148.2-124.62,1.67.5,3.82,1.74,6.26,3.53,10.92-19.4,29.94-47.38,52.39-55.7,5.25-6.01,11.42-11.65,18.5-16.37,20.22-13.48,44.73-29.44,60.83-39.89-2.43-4.79-4.01-8.75-4.32-11.15-1.62-12.27,112.19-88.91,211.52-132.24,42.19-18.41,119.48-58.85,181.56-63.09,5.68-5.07,11.26-9.62,16.84-13.67-.43-12.96,8.81-25.52,26.44-24.25,4.42.32,8.75,1.63,12.89,3.63,29.31-9.82,63.2-10.09,111.77-5.43,3.97.38,7.85.84,11.66,1.36,5.99-5.78,13.07-10.2,20.73-11.62,18.51-3.43,29.32,9.79,29.05,23.7,30.89,11.31,52.65,27.8,64.59,44.86,50.21,10.73,103.08,37.7,136.67,56.33,92.26,51.18,211.58,159.35,209.52,171.36-.21,1.24-.89,2.73-1.94,4.39,20.11,7.98,55.34,24.8,67.2,48.43,6.55,4.55,12.84,10.07,18.32,16.6,9.5,11.33,17.73,24.58,24.31,36.78,4.21-5.08,8.3-8.62,11.42-9.31,11.9-2.65,108.84,71.72,148.69,134.3,28.43,44.66,57.15,96.65,74.6,144.55,16.06,14.27,30.19,41.62,42.17,88.87,19.99,78.88,35.49,107.32,7.62,184.49,13.83,57.71,3.21,140.04-11.78,213.97-14.75,72.71-69.34,173.91-81.4,175.7-1.83.27-4.51.01-7.72-.66-.18,20.25-2.97,63.6-22.44,84.31-2.02,7.72-5.04,15.52-9.28,22.91-5.85,10.18-13.11,20.01-20.46,28.83,2.3,1.47,4.01,2.67,4.9,3.47,5.63,5.04-58.6,119.61-129.58,183.05-74.63,66.7-168.14,100.53-228.04,117.84-2.59,2.96-5.36,5.9-8.32,8.83,1.32,1.59,2.62,3.34,3.88,5.26,20.34,30.91-54,91.43-119.67,97.88-34.57,3.4-42.5-10.08-43.79-26.85-32.15,4.8-60.51-.33-95.47-16.48-45.53,7.34-97.35,8.42-147.03,3.63-108.4-10.45-243.45-107.61-246.13-119.5-.63-2.77.45-7.2,2.67-12.35-21.56-2.77-59.37-10.31-76.6-30.07-7.48-2.78-14.95-6.55-21.88-11.5-10.31-7.37-20.05-16.33-28.56-25.15-4.1,5.61-8.19,9.6-11.39,10.49-11.75,3.25-130.45-69.13-173.4-129.63-30.95-43.6-55.76-93.53-70.3-140.01-29.75-13.32-62.71-50.13-81.52-111.26-25.98-84.41-26.43-124.96,13.32-185.85,2.91-4.46,7.23-8.43,12.54-11.79-2.72-47.88,2.74-102.89,10.45-154.06,11.06-73.36,68.58-188.26,80.53-190.66.73-.15,1.56-.17,2.49-.09,2.24-22.15,8.44-54.99,25.5-71.5,2.39-7.61,5.77-15.27,10.36-22.44,6.66-10.41,14.86-20.36,23.02-29.14-1.28-.97-2.26-1.77-2.85-2.36-5.35-5.33,64.98-116.27,139.28-175.78,61.14-48.97,132.74-77.2,190.1-93.9,4.81-4.93,10.29-9.78,16.44-14.47,7.6-31.95,30.77-52.48,50.72-64.27,38.29-22.63,129.78-26.59,166.7,18.29,18.31,5.89,36.34,15.76,56.44,30.26,3.36,2.43,6.39,5.67,9.05,9.53,56.25,10.06,123.85,29.04,184.99,66.33,81.27,49.56,165.16,150.64,160.53,156.61-.7.9-2.06,2.29-3.91,4.03,18.96,11.65,45.26,31.17,52.67,53.38,5.83,5.44,11.28,11.79,15.77,19.02,6.68,10.76,12.23,22.79,16.69,34.2,5.94-3.6,11.25-5.72,14.55-5.3,12.09,1.52,70.25,113.99,86.62,186.35,16.46,72.72,21.76,189.16,7.88,257.41,7.87,25.72,10.39,59.19,3.67,98.67-14.83,87.06-32.69,123.47-95.61,159.93-2.11,1.22-4.44,2.21-6.94,3-25.93,54.3-72.31,118.51-130.44,160.11-60.33,43.18-203.73,60.46-213.78,53.56-2.6-1.79-5.05-6.52-7.05-12.7-17.44,9.29-57.84,28.18-85.79,20.74-7.75,1.88-16.06,2.93-24.57,2.7-16.54-.45-33.82-3.7-48.4-7.35-1.34,3.45-2.81,6.03-4.32,7.31-9.3,7.87-127.17,21.69-218.07-31.86-40.08-23.61-105.28-82.78-137.77-135.35-23.17-13.81-47.49-39.26-67.02-77.37-10.13,1.43-21.71-2.05-32.27-12.61-21.54-21.54-12.14-44.91,4.03-56.61-12.64-41.01-12-72.41,3.67-111.34-21.3-59.27-38.92-150.64-26.87-197.43,13.13-50.99,113.7-179.54,125.81-180.95,2.78-.32,7.39,1.19,12.81,3.89,4.77-21.06,15.99-58.61,37.58-74,3.49-7.17,7.98-14.24,13.59-20.65,11.86-13.57,26.84-25.69,39.72-34.91-2.46-6.41-3.69-11.81-2.98-14.79,2.8-11.86,142.09-96.93,194.25-104.1,51.28-7.04,149.42,25.63,204.54,55.42,21.8-5.32,52.61-.48,86.13,18.4,3-4.7,7.03-8.13,12.6-9.33,26.84-5.8,95.7,56.56,112.78,99.33,7.56,18.93,2.7,29.86-6.89,36.04,8.13,20.02,11.28,41.37,10.48,67.71,23.17,47.1,40.2,102.82,44.46,137.52,12.86,104.72-46.8,207.3-57.73,212.69-1.49.74-3.81,1.08-6.71,1.08.4,20.59-1.37,53.64-14.75,73.69-2.15,12.08-6.7,25.16-14.5,36.86-9.81,14.72-22.78,28.44-34.19,39.17.81,4.29.96,7.77.23,9.87-4.02,11.5-98.6,83.19-204.1,83.14-52.65-.02-149.16-42.65-200.23-78.39l1.47-1.96c-30.71-13.16-63.36-57.79-72.13-130.45-7.14-59.17-6.38-96.62,10.21-130.97-12.29-61.11,31.46-173.35,54.05-220.9,22.59-47.56,145.78-154.63,157.93-153.71,2.53.19,6.27,2.16,10.54,5.28,8.95-7.75,20.16-16.63,32.28-24.36-37.09-12.57-94.96-32.03-102.93-33.91-11.86-2.8-162.89,73.06-177.85,73.58-2.36.08-5.05-1.11-7.88-3.21-13.21,17.72-34.35,52.77-42.64,49.17-.06-.03-.11-.06-.17-.09-1.18,5.66-3.52,11.91-7.66,18.49-11.77,18.68-26.46,36.6-33.77,45.17,5.43,6.03,8.81,11.78,8.16,16.01-2.24,14.8-95.01,156.07-93.6,168.17,1,8.62,15.15,75.09,23.22,112.69,8.61.61,17.18,2.31,25.29,5.34,32.17,12.02,39.83,50.66,48.33,89.05,23.35,16.03,25.1,47.98,20.88,71.26,12.21,34.9,25.43,69.92,26.38,87.04.52,9.3-3.33,19.51-10.08,29.19,26.03,25.97,62.92,62.3,77.97,74.76,37.22,30.83,165.7,37.37,178.04,45.84,3.33,2.29,5.2,8.13,5.98,15.58l.66-.62c20.54-.35,66.77-7.96,69.45,1.34.02.06.02.12.04.19,5.12-2.7,11.42-4.88,19.13-5.88,23.69-3.08,48.89-2.95,58.85-2.75.8-5.59,2.42-10.03,5.07-12.28,11.42-9.67,150.46-45.36,177.36-64.5,19.28-13.72,60.72-80.75,82.65-117.64-.59-.77-1.19-1.53-1.75-2.32-19.74-27.41-5.46-63.05,8.59-99.08-11.77-16.54-17.21-37.47-8.48-58.75,8.49-20.71,22.44-33.44,37.93-39.39,6.79-26.51,13.28-50.31,19.92-61.54,6.36-10.77,20.18-18.53,36.57-22.34h0s12.35-137.95,4.97-170.13c-7.38-32.18-50.03-155.5-52.14-170.32-.33-2.33.36-5.1,1.82-8.11-20.16-21.87-51.63-53.01-46.81-58.64.04-.05.09-.09.13-.14-5.07-2.79-10.36-6.85-15.44-12.74-11.01-12.76-21.09-27.01-27.94-37.27-4.01,2.78-7.61,5.07-10.38,6.52-13.71,7.15-115.95-88.09-176.86-117.96-35.99-17.65-91.27-24.41-138.47-26.71-21.75,11.41-52.08,11.82-81.87,13.39-19.85,18.84-60.19,28.59-88.44,11.65-31.44,5.45-60.82,10.48-75.67,8.79-7.41-.84-14.93-4.47-21.98-10.04-43.41,8.46-90.95,21.65-121.45,41.79-56.61,37.38-145.89,144.86-160.4,139.52-2.21-.81-4.94-2.04-7.99-3.55-10.42,19.59-25.97,56.92-34.64,54.6-.06-.02-.12-.04-.18-.06-.33,5.78-1.71,12.3-4.83,19.42-7.97,18.18-18.35,36.11-24.69,46.49,5.84,6.14,9.71,12.27,9.39,16.95-1.02,14.93-42.29,139.53-47.3,172.16-3.36,21.85-.26,90.04,2.16,132.69,23.88,17.52,26.96,52.76,30.35,88.22,17.96,9.46,32.24,25.7,34.04,48.63,1.75,22.32-4.97,39.97-16.12,52.26,5.88,26.73,10.81,50.9,9.94,63.92-.46,6.91-3.38,14.02-8.07,20.82,12.63,40.31,31.44,96.3,43.31,112.92,19.19,26.86,127.75,115.23,135.4,128.09,1.2,2.02,1.63,4.85,1.44,8.19,27.02,12.43,68.04,29.07,65.76,36.13-.02.06-.05.12-.07.18,5.75.62,12.2,2.34,19.15,5.82,22.06,11.05,43.54,25.82,51.08,31.16,4.16-3.27,8.14-5.23,11.45-5.08,14.95.66,174.96,73.94,235.85,75.7,23.77.69,53.24-4.6,80.34-11.29.43-1.34.89-2.66,1.39-3.97,13-34.47,55.62-41.48,96.76-50.58,16.49-21.84,54.67-38.1,85.32-26.03,30.12-10.54,58.27-20.33,73.2-21.11,10.01-.52,21.02,3.87,31.35,11.43,50.41-10.21,119.08-28.44,157.68-57.04,54.51-40.38,137.84-152.54,152.62-147.98,1.62.5,3.54,1.21,5.66,2.07,9.46-20.27,22.95-57.21,31.6-55.34.07.01.12.04.19.05.05-5.78,1.12-12.37,3.9-19.63,8.58-22.45,20.74-44.69,25.59-53.26-7.61-5.33-12.81-11.08-12.21-16.12,1.77-14.86,49.27-137.22,55.92-169.56,4.79-23.28-10.18-110.93-18.94-158.21-26.98-17.7-28.34-55.06-30.04-92.68-17.46-10.36-30.91-27.29-31.54-50.28-.62-22.38,6.98-39.67,18.73-51.38-4.52-26.99-8.23-51.38-6.71-64.34,1.12-9.51,6.94-19.17,15.64-27.72-15.23-39.91-34.32-87.59-44.09-102.85-17.81-27.8-103.83-117.62-110.81-130.85-1.29-2.44-1.45-5.94-.79-10.02-20.11-17.96-69.98-53.02-65.32-60.38.04-.06.08-.1.11-.16-5.41-2.04-11.23-5.3-17.09-10.41-13.49-11.75-30.57-28.89-42.47-41.14-9.7,5.6-18.8,8.82-23.72,6.52-13.56-6.33-149-109.74-194.45-126.17-20.69-7.48-75.44-30.56-106.9-43.95-5.17,4.89-10.81,8.41-16.68,10.03-16.52,4.56-53.93,3.2-90.9,2.77-20.71,11.42-51.55,19.96-74.19,2.95-35.01,3.76-69.99,8.21-92.47-10.04-33.05,8.8-118,31.39-143.41,37.94-48.53,12.51-188.01,89.84-202.56,95.01-3.58,1.27-8.37-1.01-13.58-5.36-29.89,24.2-77.86,63.13-83.61,58.53-.05-.04-.09-.09-.14-.13-2.62,5.16-6.51,10.58-12.23,15.84-13.08,12.04-27.85,23.11-37.96,30.28,3.09,6.42,4.26,12.1,2.05,15.67-7.9,12.71-102.79,103.4-122.52,129.87-14.2,19.05-37.8,104.78-49.91,151.32,16.94,27.47,2.33,61.88-12.08,96.67,11.42,16.78,16.42,37.82,7.26,58.91-8.93,20.53-23.13,32.97-38.75,38.59-7.35,26.36-14.33,50.02-21.2,61.11-5.04,8.14-14.42,14.42-25.92,18.47-3.12,42.61-6.05,93.88-3.66,111.84,4.35,32.72,44.18,150.54,44.89,165.49.13,2.76-1.2,5.99-3.54,9.41,10.6,24.79,40.9,77.68,33.56,82.37-.06.04-.11.06-.17.09,4.04,4.14,7.92,9.56,11.07,16.68,5.82,13.16,12.27,30.48,17.48,45.15,7.56-.36,13.63.82,16.09,4.44,8.41,12.38,52.85,135.88,69.04,164.65,11.66,20.71,80.46,77.03,118.1,106.97,31.98-4.35,57.51,22.96,83.47,50.24,19.97-3.64,41.23.32,56.79,17.25,15.15,16.48,20.76,34.51,19.57,51.07,21.12,17.4,39.92,33.38,47.27,44.15,5.4,7.91,7.33,19.02,6.38,31.18,37.68,20.13,83.36,43.59,100.75,48.69,31.68,9.29,155.52,20.64,169.48,26.05,2.58,1,4.99,3.53,7.17,7.05,26.96.36,87.6-5.9,88.91,2.71.01.07,0,.13.02.19,5.42-2.01,11.95-3.36,19.73-3.36,17.87.02,42,1.74,59.01,3.18,1.66-3.96,3.95-6.61,7.02-7.13,14.75-2.52,189.64,10.71,236.36-1.65,21.27-5.63,79.42-17.82,112.91-24.73,1.46-6.96,4.1-13.06,8-17.74,10.99-13.16,42.51-33.33,73.16-54.03,10.52-21.18,31.02-45.76,59.32-44.66,24.99-21.59,49.6-43.65,76.37-44.51,31.66-25.47,75.68-60.85,91.47-73.36,39.28-31.12,135.41-158.38,146.61-169,2.31-2.19,6.43-2.44,11.55-1.37,17.13-33.31,39.09-74.57,45.27-72.94.06.02.12.04.18.06.31-5.78,1.66-12.31,4.75-19.44,6.68-15.4,15.09-30.62,21.34-41.25-4.06-5.72-6.44-11.13-5.77-15.15,2.44-14.77,36.28-145.44,44.38-177.44,5.55-21.93,17.98-87.84,25.24-127.14-15.37-24.08-9.43-60.79-5.52-96.78-12.9-12.81-21.04-30.14-18.19-50.58,2.65-19.03,10.65-33.36,21.41-43.12.1-27.56.51-52.43,3.87-65.05.84-3.14,2.17-6.21,3.92-9.17-8.72-44.04-21.43-105.03-28.5-124.09-39.98-107.74-75.41-163.92-80.11-178.13-1.77-5.36,4.08-12.72,12.72-19.85-20.77-15.37-42.56-31.79-40.55-37.18-5.48-1.88-11.34-5.07-17.22-10.25-19.05-16.8-25.9-30.66-27.89-40.52-8.35,3.73-15.4,4.99-18.5,1.33-9.68-11.42-75.75-93.31-119.77-152.08-10.52-14.05-47.49-47.89-79.8-76.52-29.92,9.32-59.85-11.96-90.18-33.13-18.84,7.54-40.47,7.91-59.09-5.58-22.77-16.49-31.29-38.37-29.67-58.68-17.46-14.35-32.44-27.38-41.31-34.72-13.62-11.26-20.06-22.7-21.78-34.28-20.16-9.25-112.4-51.2-140.99-57.82-32.16-7.45-181.98-42.96-196.22-47.55-5.31-1.71-9.1-9.49-11.42-19.11-28.27,6.33-75.8,20.44-79.71,13.68-4.94,3.02-11.13,5.51-18.87,6.74-31.62,5.02-52.99.44-64.93-3.94-2.28,2.7-4.64,4.56-7.01,5.2-14.44,3.91-157.29,33.05-189.77,38.97-19.35,3.53-69.9,25.04-107.62,41.86-.14,2.71-.52,5.38-1.17,8-8.22,33.03-48.51,47.02-86.69,62.86-5.03,17.47-16.31,32.94-35.6,40.27-17.96,6.83-34.37,6.71-48.1,1.96-24.21,13.16-46.22,24.76-58.89,27.89-5.4,1.33-11.31,1.29-17.39.13-26.51,14.4-52.07,30.71-70.64,47.79-49.92,45.93-156.11,156.44-171.29,153.47-3.87-.76-9.07-3.11-14.77-6.27-8.43,24.33-17.53,49.81-23.25,49.51-.16,5.79-1.44,12.34-4.63,19.5-9.3,20.87-19.27,31.61-27.6,37.08.76,2.39.84,4.61.06,6.56-5.58,13.88-88,178.03-101.95,224.3-5.51,18.29-21.39,62.89-33.1,95.36,2.53,4.11,4.28,8.34,5.06,12.61,3.06,16.87-1.67,54-5.43,90.78,9.51,21.65,15.24,53.14-3.75,74.16.64,38.13,2.09,76.29-23.81,96.04.08,40.13.14,92.85.04,112.17-.28,50.11,38.92,204.71,40.2,220.09.32,3.78-3.12,7.83-8.65,11.77,15.78,35.07,41.19,91.39,35.27,95.78-.05.04-.11.07-.16.1,4.32,3.85,8.57,8.99,12.2,15.87,9.24,17.48,16.78,36.68,20.97,48.12,4.95.19,8.77,1.45,10.56,4.24,8.06,12.61,78.63,140.17,94.01,169.39,8.35,15.86,38.71,51.97,64.72,81.67,1.61-.29,3.22-.5,4.85-.6,34.12-2.06,67.51,38.31,96.32,71.68,18.24-.48,36.46,5.64,49.28,21.9,11.89,15.09,16.69,30.78,16.27,45.31,6.25,6.05,12.29,11.93,17.84,17.51l.26-.16s.47.63,1.36,1.79c11.28,11.4,20.35,21.41,24.78,28.7.84,1.39,1.51,2.95,2.03,4.66,31.1,37.11,82.85,93.81,128.65,120.2,34.57,19.92,96.26,51.72,141.58,77.67h1759.45V0Z"/><path class="uuid-a39eac87-ae0f-4df6-aeee-aaf4fe82dd24" d="m1575.69,894.93c3.2,5.9,4.73,11.15,3.48,14.68-5.02,14.1-122.96,135.14-123.88,147.3-.62,8.25-2.72,76.53-4.01,119.51,3.52,1.99,6.91,4.22,10.11,6.7,26.1,20.17,23.34,57.1,20.21,94.72,13.09,20.3,10.95,49.3,5.74,67.79-1.28,4.55-3.77,8.92-7.19,12.97.05,1.3.1,2.6.15,3.9,9.84,15.69,66.51,104.27,94.98,108.86,47.71,7.7,161.76-51.84,176.69-50.78,1.74.12,3.58.96,5.46,2.34,8.85-17.18,19.05-37.16,25.98-39.73-1.03-6.82-.78-15.11,2.28-24.72,5.17-16.25,12.14-32.5,17.31-43.72-9.13-4.33-16.02-9.38-16.98-14.32-2.86-14.69,42.37-135.13,28.94-181.55-3.84-13.28-14.29-41.36-24.83-68.77-2.35.26-4.7.44-7.07.51-33.77.9-55.2-30.95-77.09-62.83-20.29.43-40.66-6.84-53.35-26.03-12.35-18.68-15.03-37.37-11.24-53.52-8.76-9.94-17.03-19.46-23.87-27.97-13.59,5.59-30.06,11.07-39.63,15.39l-2.19-.7Z"/><path class="uuid-394b1f68-46f8-46ab-afcc-a8b0b6291a5b" d="m1802.98,1314.73c-5.17,11.23-12.14,27.47-17.31,43.72-3.06,9.61-3.31,17.9-2.28,24.72.81-.3,1.57-.37,2.28-.16,6.42,1.85,3.12,10.6,3.45,16.49,2.06,3.48,3.83,5.33,3.83,5.33,9.07,2.02,22.17-47.37,33.26-46.36,7.18.65,11.4,19.51,7.45,41.75,13.38-20.06,15.15-53.1,14.75-73.69-11.21.02-31.09-4.99-45.43-11.79Z"/><path class="uuid-9213d468-34b2-4a12-81fc-981aa45abbc4" d="m1202.33,983c7.3-8.57,22-26.49,33.77-45.17,4.15-6.58,6.48-12.83,7.66-18.49-8.5-3.99,4.46-19.34-4.21-22.49-8.73-3.18-28.15,44.08-39.01,41.64-8.55-1.92-9.26-29.88,3.64-56.38-21.59,15.39-32.8,52.94-37.58,74,11.45,5.7,26.53,16.68,35.72,26.89Z"/><path class="uuid-9213d468-34b2-4a12-81fc-981aa45abbc4" d="m1826.21,1358.46c-11.09-1.01-24.19,48.38-33.26,46.36-2.8-.62-3.68-2.69-3.83-5.33-.33-5.9,2.97-14.65-3.45-16.49-.71-.2-1.47-.14-2.28.16-6.93,2.57-17.13,22.55-25.98,39.73,11.36,8.33,24.42,36.85,27.55,53.35,11.41-10.73,24.38-24.46,34.19-39.17,7.8-11.7,12.36-24.78,14.5-36.86,3.95-22.24-.27-41.1-7.45-41.75Z"/><path class="uuid-394b1f68-46f8-46ab-afcc-a8b0b6291a5b" d="m1200.55,938.48c10.86,2.44,30.28-44.81,39.01-41.64,8.67,3.16-4.3,18.5,4.21,22.49.06.03.11.06.17.09,8.28,3.6,29.43-31.45,42.64-49.17-10.6-7.88-23.27-28.6-29.08-43.71-12.88,9.22-27.85,21.35-39.72,34.91-5.61,6.41-10.09,13.48-13.59,20.65-12.9,26.49-12.19,54.45-3.64,56.38Z"/><path class="uuid-394b1f68-46f8-46ab-afcc-a8b0b6291a5b" d="m1911.41,792.31c5.08,5.89,10.37,9.95,15.44,12.74,6.3-6.96,17.19,9.93,22.74,2.56,5.59-7.42-33.92-39.81-28.41-49.48,4.34-7.61,31.29-.11,52.85,19.98-7.41-22.2-33.71-41.72-52.67-53.38-7.96,7.48-25.04,21.41-37.89,30.31,6.85,10.26,16.93,24.51,27.94,37.27Z"/><path class="uuid-76221d50-6f7a-48d1-bdee-164fb5fb93f9" d="m1921.18,758.12c-5.51,9.67,34,42.06,28.41,49.48-5.56,7.37-16.44-9.52-22.74-2.56-.04.05-.09.09-.13.14-4.82,5.64,26.64,36.78,46.81,58.64,5.27-10.92,20.51-24.96,32.97-32.5-4.46-11.41-10.01-23.44-16.69-34.2-4.49-7.23-9.93-13.58-15.77-19.02-21.56-20.09-48.51-27.59-52.85-19.98Z"/><path class="uuid-9213d468-34b2-4a12-81fc-981aa45abbc4" d="m935.62,938.89c6.34-10.38,16.73-28.31,24.69-46.49,3.12-7.13,4.5-13.65,4.83-19.42-9-2.68,1.54-19.79-7.51-21.62-9.11-1.84-21.27,47.78-32.37,46.98-8.74-.63-13.61-28.17-4.8-56.29-17.07,16.51-23.26,49.35-25.5,71.5,9.56.83,29.02,13.09,40.66,25.34Z"/><path class="uuid-394b1f68-46f8-46ab-afcc-a8b0b6291a5b" d="m925.26,898.34c11.1.8,23.27-48.82,32.37-46.98,9.04,1.83-1.49,18.94,7.51,21.62.06.02.12.04.18.06,8.67,2.32,24.22-35.01,34.64-54.6-14.86-7.35-37.51-21.46-46.12-27.97-8.16,8.79-16.37,18.74-23.02,29.14-4.59,7.17-7.98,14.83-10.36,22.44-8.81,28.12-3.94,55.66,4.8,56.29Z"/><path class="uuid-394b1f68-46f8-46ab-afcc-a8b0b6291a5b" d="m876.53,583.08c10.11-7.18,24.88-18.24,37.96-30.28,5.72-5.27,9.61-10.69,12.23-15.84-7.16-6.08,9.36-17.5,1.82-22.81-7.6-5.35-38.69,35.19-48.54,29.99-7.75-4.09-1.12-31.27,18.26-53.47-22.46,8.31-41.47,36.29-52.39,55.7,9.82,7.24,24.3,23.52,30.65,36.72Z"/><path class="uuid-46e07fbd-14a3-423e-8bdd-ae0e51d71b6d" d="m880.01,544.14c9.84,5.2,40.94-35.34,48.54-29.99,7.54,5.31-8.98,16.74-1.82,22.81.05.04.09.09.14.13,5.75,4.6,53.73-34.33,83.61-58.53-11.86-9.88-25.91-30.41-32.88-44.15-16.1,10.45-40.61,26.41-60.83,39.89-7.08,4.72-13.26,10.37-18.5,16.37-19.38,22.2-26.01,49.38-18.26,53.47Z"/><path class="uuid-76221d50-6f7a-48d1-bdee-164fb5fb93f9" d="m1661.03,1690.22c-9.96-.21-35.16-.33-58.85,2.75-7.71,1-14.01,3.19-19.13,5.88,2.35,9.1-17.74,8.89-14.65,17.58,3.12,8.75,51.9-6.42,56.95,3.5,3.97,7.81-17.11,26.19-45.75,33.14,27.95,7.44,68.35-11.45,85.79-20.74-3.92-12.13-6.11-29.87-4.35-42.12Z"/><path class="uuid-9213d468-34b2-4a12-81fc-981aa45abbc4" d="m1625.34,1719.93c-5.04-9.92-53.83,5.25-56.95-3.5-3.1-8.69,16.99-8.49,14.65-17.58-.02-.06-.02-.12-.04-.19-2.68-9.29-48.91-1.68-69.45-1.34l-.66.62c1.63,15.65-1.57,38.42-6.27,50.48,14.57,3.65,31.85,6.9,48.4,7.35,8.51.23,16.82-.82,24.57-2.7,28.64-6.95,49.72-25.33,45.75-33.14Z"/><path class="uuid-76221d50-6f7a-48d1-bdee-164fb5fb93f9" d="m1286.57,870.26c2.83,2.11,5.51,3.3,7.88,3.21,14.96-.52,165.98-76.37,177.85-73.58,7.97,1.88,65.84,21.35,102.93,33.91,4.95-3.15,10.05-6.12,15.22-8.74,3.69-1.87,7.46-3.43,11.27-4.74,5.41-17.53,17.07-35.68,32.21-48.04,5.16-4.21,11.72-7.34,19.38-9.21-55.12-29.79-153.26-62.46-204.54-55.42-52.16,7.16-191.46,92.23-194.25,104.1-.7,2.98.52,8.38,2.98,14.79,5.8,15.11,18.48,35.83,29.08,43.71Z"/><path class="uuid-d38653b6-221f-4f1e-88a7-aed294046270" d="m1926.1,1495.8c-21.93,36.89-63.37,103.92-82.65,117.64-26.9,19.14-165.94,54.83-177.36,64.5-2.65,2.24-4.27,6.69-5.07,12.28-1.75,12.25.44,29.99,4.35,42.12,2,6.18,4.45,10.91,7.05,12.7,10.05,6.9,153.45-10.38,213.78-53.56,58.13-41.6,104.51-105.81,130.44-160.11-25.04,7.84-67.67-6.07-90.54-35.56Z"/><path class="uuid-d38653b6-221f-4f1e-88a7-aed294046270" d="m1973.52,863.83c-1.45,3.01-2.15,5.78-1.82,8.11,2.1,14.82,44.76,138.14,52.14,170.32,7.38,32.18-4.97,170.13-4.97,170.13h0c16.28-3.79,35.1-3.68,51.7,1.26,18.22,5.41,35.47,25.14,44.96,56.14,13.88-68.25,8.58-184.69-7.88-257.41-16.38-72.36-74.53-184.83-86.62-186.35-3.29-.41-8.6,1.7-14.55,5.3-12.46,7.54-27.7,21.59-32.97,32.5Z"/><path class="uuid-a121f20b-b55f-417e-9439-6600f80a32ce" d="m1140.11,1279.88c-8.07-37.6-22.21-104.08-23.22-112.69-1.41-12.11,91.36-153.38,93.6-168.17.64-4.23-2.74-9.99-8.16-16.01-9.19-10.21-24.27-21.19-35.72-26.89-5.42-2.7-10.03-4.21-12.81-3.89-12.11,1.41-112.67,129.96-125.81,180.95-12.05,46.8,5.57,138.16,26.87,197.43,2.5-6.2,5.37-12.6,8.64-19.25,9.63-19.61,43.4-33.81,76.61-31.47Z"/><path class="uuid-e8e2872a-4fb0-4927-a10a-6316ebaf9fc1" d="m1757.42,1422.89c-1.89-1.38-3.73-2.22-5.46-2.34-14.93-1.05-128.98,58.48-176.69,50.78-28.47-4.59-85.14-93.17-94.98-108.86,1.34,35.02,3.18,69.41-.76,85.18-6.05,24.19-43.84,45.35-78.61,45.35-5.96,0-12.22-1.38-18.58-4.1l-1.47,1.96c51.06,35.74,147.58,78.37,200.23,78.39,105.5.04,200.07-71.64,204.1-83.14.73-2.1.59-5.58-.23-9.87-3.13-16.5-16.2-45.02-27.55-53.35Z"/><path class="uuid-76221d50-6f7a-48d1-bdee-164fb5fb93f9" d="m1790.12,1050.08c10.54,27.41,20.98,55.49,24.83,68.77,13.44,46.42-31.8,166.86-28.94,181.55.96,4.94,7.85,9.99,16.98,14.32,14.34,6.8,34.22,11.82,45.43,11.79,2.9,0,5.22-.35,6.71-1.08,10.93-5.39,70.59-107.97,57.73-212.69-4.26-34.7-21.29-90.43-44.46-137.52-.13,4.18-.35,8.49-.67,12.93-1.87,25.9-38.2,57.51-77.6,61.92Z"/><path class="uuid-a121f20b-b55f-417e-9439-6600f80a32ce" d="m1512.89,1697.94c-.78-7.45-2.65-13.29-5.98-15.58-12.33-8.48-140.82-15.01-178.04-45.84-15.05-12.46-51.94-48.79-77.97-74.76-11.31,16.22-30.79,30.94-51.59,37.38-14.35,4.44-33.18,1.11-52.85-10.62,32.49,52.57,97.69,111.74,137.77,135.35,90.9,53.55,208.77,39.73,218.07,31.86,1.51-1.28,2.98-3.86,4.32-7.31,4.7-12.06,7.9-34.83,6.27-50.48Z"/><path class="uuid-98a0dcf3-c1ef-46b8-9991-eb1e5378dc5b" d="m1601.7,820.33c32.94-11.34,67.92-2.84,67.62,7.14-.33,11.13-50.92,18.23-50,27.47.92,9.25,19.25.29,20.79,9.84.75,4.66-9.62,10.12-22.6,15.46,6.84,8.52,15.11,18.03,23.87,27.97,3.58-15.25,12.93-28.23,25.39-36.8.23-1.35.53-2.68.9-3.98,11.43-40.93,46.29-25.43,56.22-28.7,7.87-2.59,4.09-39.26,15.55-57.25-33.53-18.88-64.34-23.71-86.13-18.4-7.67,1.87-14.22,4.99-19.38,9.21-15.14,12.36-26.79,30.51-32.21,48.04Z"/><path class="uuid-98a0dcf3-c1ef-46b8-9991-eb1e5378dc5b" d="m1814.43,914.75c-20.27-1.37-9.96,59.88-65.58,60.42-11.95,7.44-27.4,12.26-42.9,12.59,21.89,31.88,43.32,63.73,77.09,62.83,2.36-.06,4.72-.24,7.07-.51,39.4-4.42,75.72-36.03,77.6-61.92.32-4.45.55-8.75.67-12.93.8-26.34-2.34-47.69-10.48-67.71-12.08,7.78-31.69,8.03-43.48,7.23Z"/><path class="uuid-46e07fbd-14a3-423e-8bdd-ae0e51d71b6d" d="m1007.96,821.99c14.51,5.35,103.79-102.14,160.4-139.52,30.49-20.13,78.04-33.33,121.45-41.79-17.23-13.62-31.68-38.93-35.03-64.14-2.27-17.14,6.26-38.28,25.61-58.11-57.36,16.7-128.96,44.93-190.1,93.9-74.3,59.51-144.64,170.44-139.28,175.78.59.58,1.57,1.39,2.85,2.36,8.61,6.51,31.26,20.62,46.12,27.97,3.06,1.51,5.79,2.74,7.99,3.55Z"/><path class="uuid-46e07fbd-14a3-423e-8bdd-ae0e51d71b6d" d="m1579.65,596.3c-5.4,9.31-12.92,15.89-21.89,20.6,47.2,2.3,102.48,9.06,138.47,26.71,60.91,29.87,163.14,125.11,176.86,117.96,2.77-1.45,6.37-3.74,10.38-6.52,12.85-8.9,29.93-22.83,37.89-30.31,1.85-1.73,3.21-3.13,3.91-4.03,4.63-5.97-79.26-107.05-160.53-156.61-61.14-37.29-128.74-56.27-184.99-66.33,15.56,22.52,18.48,66.55-.09,98.54Z"/><path class="uuid-a121f20b-b55f-417e-9439-6600f80a32ce" d="m1490.52,593.15c-.65,7.36-1.99,14.28-3.64,20.14-1.72,6.1-5.61,11.88-11,16.99,29.79-1.57,60.12-1.98,81.87-13.39,8.98-4.71,16.49-11.29,21.89-20.6,18.57-31.99,15.65-76.02.09-98.54-2.66-3.86-5.69-7.1-9.05-9.53-20.1-14.5-38.13-24.36-56.44-30.26,5.84,7.09,10.32,15.4,13,25.05,15.05,54.11-6.03,88.97-36.73,110.13Z"/><path class="uuid-a121f20b-b55f-417e-9439-6600f80a32ce" d="m1254.77,576.54c3.35,25.21,17.8,50.52,35.03,64.14,7.05,5.57,14.56,9.19,21.98,10.04,14.85,1.69,44.23-3.34,75.67-8.79-6.86-4.11-13-9.79-17.97-17.3-2.32-3.51-4.3-7.03-5.96-10.53-36.07-14.04-67.8-47.41-69.19-83.78-.37-9.55.58-18.31,2.49-26.37-6.15,4.69-11.63,9.54-16.44,14.47-19.34,19.84-27.88,40.97-25.61,58.11Z"/><path class="uuid-46e07fbd-14a3-423e-8bdd-ae0e51d71b6d" d="m1088.08,1440.32h0c-1.62-15.45,1.17-31.23,9.49-44.57,26.71-42.83,68.53-48.9,90.7-31.51.26.21.5.51.71.88,10.14,1.47,18.27,4.69,24.75,9.14-8.5-38.4-16.16-77.03-48.33-89.05-8.1-3.03-16.68-4.73-25.29-5.34-33.21-2.34-66.98,11.86-76.61,31.47-3.27,6.66-6.14,13.05-8.64,19.25-15.67,38.92-16.3,70.32-3.67,111.34,11.82-8.55,27.26-10.85,36.88-1.62Z"/><path class="uuid-46e07fbd-14a3-423e-8bdd-ae0e51d71b6d" d="m1199.31,1599.14c20.8-6.44,40.28-21.16,51.59-37.38,6.75-9.68,10.6-19.89,10.08-29.19-.95-17.12-14.17-52.13-26.38-87.04-.63,3.5-1.4,6.81-2.25,9.84-1.1,3.92-3.11,7.7-5.82,11.26,0,0,0,0,0,0,1.87,14.75-24.24,43-74.84,41.49-18.43-.55-34.16-9.93-45.42-23.71-2.51,14.25-13.38,24.84-26.83,26.74,19.54,38.11,43.86,63.56,67.02,77.37,19.67,11.72,38.5,15.06,52.85,10.62Z"/><path class="uuid-9213d468-34b2-4a12-81fc-981aa45abbc4" d="m1575.69,894.93l2.19.7c9.58-4.32,26.04-9.8,39.63-15.39,12.99-5.34,23.36-10.8,22.6-15.46-1.54-9.55-19.88-.59-20.79-9.84-.92-9.25,49.68-16.35,50-27.47.29-9.98-34.68-18.48-67.62-7.14-3.8,1.31-7.58,2.88-11.27,4.74-5.17,2.61-10.27,5.58-15.22,8.74-12.12,7.73-23.33,16.61-32.28,24.36,11.09,8.1,25.82,23.97,32.74,36.76Z"/><path class="uuid-e8e2872a-4fb0-4927-a10a-6316ebaf9fc1" d="m1451.27,1176.41c1.28-42.98,3.38-111.26,4.01-119.51.92-12.15,118.87-133.2,123.88-147.3,1.25-3.52-.28-8.77-3.48-14.68-6.93-12.79-21.66-28.66-32.74-36.76-4.27-3.12-8-5.09-10.54-5.28-12.15-.92-135.34,106.15-157.93,153.71-22.59,47.55-66.33,159.79-54.05,220.9,7.99-16.55,19.66-32.38,35.9-49.57,17.07-18.07,61.93-20.23,94.95-1.52Z"/><path class="uuid-76221d50-6f7a-48d1-bdee-164fb5fb93f9" d="m1479.52,1447.65c3.94-15.77,2.1-50.16.76-85.18-.05-1.3-.1-2.6-.15-3.9-11.79,13.98-34.67,24.12-57.55,24.41-20.03,15.63-54.14,8.58-75.1-29.95-27.09-49.81,9.68-101.85,47.09-107.45,17.89-2.68,28.1,2.65,33.9,8.94,27.7-.64,44.05,9.24,53.11,23.29,3.13-37.62,5.89-74.55-20.21-94.72-3.2-2.48-6.59-4.7-10.11-6.7-33.03-18.72-77.88-16.55-94.95,1.52-16.23,17.19-27.9,33.02-35.9,49.57-16.59,34.35-17.35,71.8-10.21,130.97,8.77,72.66,41.41,117.29,72.13,130.45,6.35,2.72,12.62,4.1,18.58,4.1,34.77,0,72.56-21.16,78.61-45.35Z"/><path class="uuid-9213d468-34b2-4a12-81fc-981aa45abbc4" d="m1481.59,1277.82c-9.06-14.05-25.42-23.93-53.11-23.29,6.33,6.87,7.4,14.88,7.4,14.88,0,0,12.24,57.89,0,94.27-2.77,8.23-7.43,14.74-13.29,19.31,22.88-.29,45.76-10.43,57.55-24.41,3.42-4.05,5.91-8.42,7.19-12.97,5.21-18.49,7.36-47.49-5.74-67.79Z"/><path class="uuid-9213d468-34b2-4a12-81fc-981aa45abbc4" d="m1173.65,1423.47s48.87,11.59,52.88,43.16c2.71-3.56,4.72-7.35,5.82-11.26.85-3.02,1.62-6.33,2.25-9.84,4.22-23.27,2.47-55.23-20.88-71.26-6.48-4.45-14.61-7.68-24.75-9.14,4.19,7.51-1.89,47.3-15.32,58.34Z"/><path class="uuid-a060e095-8253-49a9-b014-78407b917f72" d="m1435.88,1363.68c12.24-36.38,0-94.27,0-94.27,0,0-1.07-8.01-7.4-14.88-5.8-6.29-16.01-11.62-33.9-8.94-37.42,5.6-74.19,57.64-47.09,107.45,20.96,38.54,55.07,45.58,75.1,29.95,5.86-4.57,10.52-11.08,13.29-19.31Z"/><path class="uuid-394b1f68-46f8-46ab-afcc-a8b0b6291a5b" d="m1652.62,961.73c12.69,19.18,33.05,26.46,53.35,26.03,15.5-.33,30.94-5.15,42.9-12.59-2.43.02-4.98-.06-7.67-.28-30.21-2.45-81.55-62.52-74.42-103.49-12.46,8.57-21.81,21.56-25.39,36.8-3.79,16.16-1.11,34.85,11.24,53.52Z"/><path class="uuid-46e07fbd-14a3-423e-8bdd-ae0e51d71b6d" d="m1969.34,508.86c11.9,12.25,28.98,29.39,42.47,41.14,5.87,5.11,11.68,8.37,17.09,10.41,5.25-7.79,18.42,7.38,22.87-.7,4.48-8.14-39.23-34.58-35.15-44.94,3.21-8.15,30.95-4.56,55.15,12.25-11.86-23.64-47.09-40.46-67.2-48.43-5.43,8.63-20.97,22.03-35.23,30.27Z"/><path class="uuid-9213d468-34b2-4a12-81fc-981aa45abbc4" d="m2016.63,514.77c-4.08,10.36,39.63,36.8,35.15,44.94-4.45,8.08-17.62-7.09-22.87.7-.04.05-.08.1-.11.16-4.66,7.36,45.2,42.41,65.32,60.38,1.99-12.24,11.41-29.82,20.3-40.54-6.59-12.2-14.81-25.46-24.31-36.78-5.47-6.52-11.77-12.04-18.32-16.6-24.2-16.82-51.94-20.4-55.15-12.25Z"/><path class="uuid-394b1f68-46f8-46ab-afcc-a8b0b6291a5b" d="m1486.88,613.29c1.65-5.86,2.99-12.78,3.64-20.14-30.33,20.91-70.06,28.44-93.6,27.94-11.05-.24-22.43-2.72-33.41-6.99,1.66,3.5,3.64,7.01,5.96,10.53,4.97,7.51,11.11,13.19,17.97,17.3,28.25,16.95,68.58,7.19,88.44-11.65,5.39-5.11,9.28-10.89,11-16.99Z"/><path class="uuid-e8e2872a-4fb0-4927-a10a-6316ebaf9fc1" d="m2070.57,1213.64c-16.61-4.93-35.43-5.04-51.7-1.26-16.39,3.81-30.2,11.57-36.57,22.34-6.64,11.23-13.12,35.03-19.92,61.54,23.38-8.98,50.29-2.51,67.29,15.35,20.32,21.33,27.45,39.97,26.7,55.75,7.39,11.82-2.37,28.11-11.48,31.08-.6.19-1.27.32-2,.39-11.91,13.69-29.43,22.96-43.05,27.51-19.79,6.62-49.95-8.09-66.93-31.95-14.05,36.03-28.33,71.67-8.59,99.08.57.79,1.16,1.55,1.75,2.32,22.87,29.49,65.51,43.41,90.54,35.56,2.5-.78,4.83-1.77,6.94-3,62.92-36.46,80.79-72.87,95.61-159.93,6.72-39.48,4.2-72.95-3.67-98.67-9.49-30.99-26.75-50.73-44.96-56.14Z"/><path class="uuid-76221d50-6f7a-48d1-bdee-164fb5fb93f9" d="m1999.86,1426.36c13.62-4.56,31.14-13.83,43.05-27.51-12.75,1.37-44.44-14.56-63.51-22.81-20.16-8.72-35.27-20.51-28.72-41.67,6.55-21.16,29.55-12.81,47.87-2.02,10.4,6.13,31.24,17.13,50.39,28.12,3.43,1.96,5.84,4.33,7.45,6.9.74-15.78-6.39-34.42-26.7-55.75-17.01-17.85-43.91-24.33-67.29-15.35-15.49,5.95-29.44,18.68-37.93,39.39-8.73,21.28-3.28,42.21,8.48,58.75,16.98,23.86,47.13,38.57,66.93,31.95Z"/><path class="uuid-d38653b6-221f-4f1e-88a7-aed294046270" d="m1723.88,838.73c-9.93,3.27-44.79-12.22-56.22,28.7-.36,1.3-.66,2.63-.9,3.98-7.13,40.96,44.22,101.04,74.42,103.49,2.69.22,5.24.3,7.67.28,55.62-.54,45.31-61.8,65.58-60.42,11.79.8,31.39.55,43.48-7.23,9.59-6.18,14.45-17.1,6.89-36.04-17.08-42.78-85.94-105.13-112.78-99.33-5.56,1.2-9.6,4.63-12.6,9.33-11.46,17.98-7.67,54.65-15.55,57.25Z"/><path class="uuid-98a0dcf3-c1ef-46b8-9991-eb1e5378dc5b" d="m1173.65,1423.47c13.43-11.03,19.51-50.82,15.32-58.34-.21-.38-.45-.68-.71-.88-22.17-17.4-64-11.33-90.7,31.51-8.32,13.34-11.11,29.12-9.49,44.57,15.85,15.22,20.47,31.17,18.2,44.1,11.26,13.77,26.98,23.15,45.42,23.71,50.6,1.51,76.71-26.74,74.84-41.49,0,0,0,0,0,0-4-31.57-52.88-43.16-52.88-43.16Z"/><path class="uuid-98a0dcf3-c1ef-46b8-9991-eb1e5378dc5b" d="m1106.27,1484.42c2.27-12.93-2.34-28.87-18.2-44.1h0c-9.61-9.23-25.06-6.93-36.88,1.62-16.17,11.69-25.56,35.07-4.03,56.61,10.56,10.56,22.14,14.04,32.27,12.61,13.45-1.9,24.33-12.49,26.83-26.74Z"/><path class="uuid-98a0dcf3-c1ef-46b8-9991-eb1e5378dc5b" d="m1644.27,345.26c31.47,13.38,86.22,36.47,106.9,43.95,45.45,16.44,180.89,119.85,194.45,126.17,4.92,2.3,14.03-.92,23.72-6.52,14.26-8.24,29.8-21.64,35.23-30.27,1.05-1.66,1.72-3.15,1.94-4.39,2.07-12.01-117.26-120.18-209.52-171.36-33.58-18.63-86.46-45.61-136.67-56.33,6.85,9.8,10.46,19.78,10.69,29.09.64,26.27-10.76,54.55-26.74,69.67Z"/><path class="uuid-98a0dcf3-c1ef-46b8-9991-eb1e5378dc5b" d="m1010.48,478.55c5.22,4.34,10.01,6.63,13.58,5.36,14.55-5.17,154.03-82.5,202.56-95.01,25.4-6.55,110.35-29.14,143.41-37.94-2.63-2.13-5.08-4.56-7.35-7.35-26.5-32.62-27.27-85.54-7.74-104.91,3.87-3.83,7.66-7.42,11.42-10.77-62.08,4.24-139.37,44.69-181.56,63.09-99.33,43.33-213.14,119.97-211.52,132.24.32,2.39,1.89,6.36,4.32,11.15,6.97,13.74,21.02,34.27,32.88,44.15Z"/><path class="uuid-d38653b6-221f-4f1e-88a7-aed294046270" d="m1453.88,232.8c6.88-4.05,15.05-7,24.64-8.3,19.47-2.65,35.74-2.25,48.95.66.24-9.8,7.51-25,18.49-35.6-3.81-.52-7.69-.98-11.66-1.36-48.57-4.66-82.46-4.38-111.77,5.43,16.59,8,29.86,27.18,31.35,39.17Z"/><path class="uuid-d38653b6-221f-4f1e-88a7-aed294046270" d="m1555.67,238.67c8.91,8.01,13.93,18.7,15.23,31.3,1.76,17.04-.45,27.22-6.81,32.8.77,21.19-6.1,41.35-18.8,50.02-2.59,1.77-5.49,3.55-8.6,5.27,36.98.43,74.38,1.8,90.9-2.77,5.87-1.62,11.51-5.14,16.68-10.03,15.98-15.12,27.39-43.4,26.74-69.67-.23-9.31-3.84-19.3-10.69-29.09-11.93-17.07-33.7-33.55-64.59-44.86-.1,5.42-1.88,10.94-5.54,15.63-7.19,9.21-21.27,18.18-34.53,21.39Z"/><path class="uuid-d38653b6-221f-4f1e-88a7-aed294046270" d="m1362.68,343.61c2.26,2.79,4.72,5.22,7.35,7.35,22.48,18.25,57.45,13.8,92.47,10.04-11.1-8.34-20.22-22.81-25.21-46.11-.94-.39-1.87-.8-2.75-1.28-13.49-7.25-15.79-40.3,1.28-64.22-15.22,1.15-35.24-7.54-45.18-17.7-4.81-4.92-7.23-11.23-7.44-17.45-5.58,4.05-11.16,8.6-16.84,13.67-3.76,3.36-7.56,6.94-11.42,10.77-19.53,19.37-18.76,72.29,7.74,104.91Z"/><path class="uuid-46e07fbd-14a3-423e-8bdd-ae0e51d71b6d" d="m1564.09,302.76c-6.13,5.38-16.12,6.48-30.17,5.32-27.57-2.29-71.86,16.99-96.64,6.82,4.99,23.3,14.11,37.77,25.21,46.11,22.64,17.01,53.48,8.48,74.19-2.95,3.12-1.72,6.01-3.5,8.6-5.27,12.7-8.67,19.57-28.83,18.8-50.02Z"/><path class="uuid-b1bcb32e-30dd-4df7-befd-43c206b2953a" d="m2048.94,1360.46c-19.15-10.98-39.99-21.98-50.39-28.12-18.32-10.79-41.31-19.15-47.87,2.02-6.55,21.16,8.56,32.95,28.72,41.67,19.07,8.25,50.77,24.18,63.51,22.81.72-.08,1.4-.2,2-.39,9.1-2.97,18.87-19.27,11.48-31.08-1.61-2.57-4.02-4.94-7.45-6.9Z"/><path class="uuid-394b1f68-46f8-46ab-afcc-a8b0b6291a5b" d="m1266.07,1857.03c-7.54-5.35-29.02-20.12-51.08-31.16-6.96-3.48-13.4-5.2-19.15-5.82-3.14,8.85-19.68-2.55-21.98,6.39-2.31,9,46.62,23.7,45.25,34.75-1.08,8.69-28.83,12.14-56.46,1.89,17.23,19.76,55.04,27.3,76.6,30.07,5.17-12.05,16.55-28.06,26.81-36.11Z"/><path class="uuid-9213d468-34b2-4a12-81fc-981aa45abbc4" d="m1219.12,1861.18c1.37-11.05-47.56-25.75-45.25-34.75,2.29-8.94,18.83,2.47,21.98-6.39.02-.06.05-.11.07-.18,2.28-7.06-38.74-23.7-65.76-36.13-.67,12.1-9.33,30.93-17.93,42.68,8.51,8.82,18.25,17.78,28.56,25.15,6.93,4.95,14.4,8.73,21.88,11.5,27.63,10.25,55.38,6.8,56.46-1.89Z"/><path class="uuid-647325cb-ba26-49dd-a5bc-57d2147b4520" d="m893.26,1256.59c2.36,1.23,4.56,2.6,6.61,4.1-2.42-42.65-5.52-110.84-2.16-132.69,5.01-32.63,46.28-157.23,47.3-172.16.32-4.68-3.55-10.81-9.39-16.95-11.64-12.25-31.1-24.51-40.66-25.34-.93-.08-1.76-.06-2.49.09-11.95,2.4-69.47,117.3-80.53,190.66-7.72,51.16-13.18,106.17-10.45,154.06,22.11-13.98,61.71-17.4,91.77-1.77Z"/><path class="uuid-647325cb-ba26-49dd-a5bc-57d2147b4520" d="m1128.71,1775.55c-7.64-12.87-116.21-101.23-135.4-128.09-11.87-16.62-30.68-72.61-43.31-112.92-12.22,17.7-36.52,33.31-61.24,37.77-9.44,1.7-20.3.03-31.63-5.04,14.54,46.48,39.35,96.41,70.3,140.01,42.95,60.49,161.65,132.87,173.4,129.63,3.2-.88,7.28-4.88,11.39-10.49,8.6-11.75,17.26-30.58,17.93-42.68.18-3.34-.24-6.16-1.44-8.19Z"/><path class="uuid-e8e2872a-4fb0-4927-a10a-6316ebaf9fc1" d="m888.77,1572.31c24.72-4.46,49.02-20.07,61.24-37.77,4.69-6.8,7.61-13.91,8.07-20.82.87-13.02-4.06-37.19-9.94-63.92-16.83,18.55-43.77,24.89-66.99,16.61-82.99-29.58-49.93-90.77-25.06-115.87,14.69-14.83,48.23-15.28,74.14-1.62-3.4-35.46-6.47-70.71-30.35-88.22-2.05-1.5-4.24-2.87-6.61-4.1-30.06-15.63-69.67-12.21-91.77,1.77-5.31,3.36-9.63,7.32-12.54,11.79-39.75,60.89-39.3,101.45-13.32,185.85,18.81,61.13,51.77,97.95,81.52,111.26,11.33,5.07,22.19,6.74,31.63,5.04Z"/><path class="uuid-9213d468-34b2-4a12-81fc-981aa45abbc4" d="m856.08,1350.54c-24.87,25.1-57.92,86.29,25.06,115.87,23.23,8.28,50.16,1.94,66.99-16.61,11.15-12.29,17.87-29.94,16.12-52.26-1.79-22.93-16.08-39.16-34.04-48.63-25.91-13.65-59.45-13.21-74.14,1.62Z"/><path class="uuid-394b1f68-46f8-46ab-afcc-a8b0b6291a5b" d="m2386.87,613.53c5.88,5.18,11.74,8.37,17.22,10.25.04-.1.07-.2.13-.3,4.88-8.35,18.75,6.62,22.94-1.68,4.19-8.29-40.44-33.16-36.73-43.66,2.93-8.29,30.98-5.65,55.83,10.46-8.84-17.69-29.49-32.5-47.49-42.72-9.34,8.6-26.28,21.09-39.78,27.12,1.98,9.86,8.84,23.71,27.89,40.52Z"/><path class="uuid-9213d468-34b2-4a12-81fc-981aa45abbc4" d="m2390.43,578.16c-3.71,10.5,40.92,35.36,36.73,43.66-4.19,8.29-18.06-6.67-22.94,1.68-.05.09-.09.19-.13.3-2.01,5.39,19.78,21.8,40.55,37.18,14.26-11.77,36.09-22.9,43.67-23.3.21-.01.44.02.67.07-6.74-11.24-14.91-23.15-24.12-33.37-5.62-6.23-12-11.47-18.61-15.75-24.85-16.11-52.9-18.75-55.83-10.46Z"/><path class="uuid-9213d468-34b2-4a12-81fc-981aa45abbc4" d="m1451.66,75.3c7.74-1.23,13.93-3.72,18.87-6.74-.05-.09-.11-.19-.15-.29-3.33-9.08,17.05-10.24,13.32-18.75-3.72-8.51-51.33,10.05-57.05.5-4.52-7.54,15.39-27.48,43.63-36.37-20.39-4.72-46.73,2.82-66.52,10.69-1.06,14.41-8.4,36.79-17.04,47.02,11.94,4.38,33.31,8.95,64.93,3.94Z"/><path class="uuid-394b1f68-46f8-46ab-afcc-a8b0b6291a5b" d="m1426.66,50.02c5.73,9.55,53.33-9.02,57.05-.5,3.72,8.51-16.65,9.67-13.32,18.75.04.1.09.19.15.29,3.91,6.76,51.44-7.34,79.71-13.68-3.36-13.92-3.64-31.69-.99-40.45-15.95-3.14-36.07-5.91-54.97-5.09-8.39.36-16.49,1.95-24,4.31-28.25,8.89-48.16,28.83-43.63,36.37Z"/><path class="uuid-a060e095-8253-49a9-b014-78407b917f72" d="m1294.33,530.32c1.39,36.37,33.12,69.73,69.19,83.78,10.98,4.27,22.36,6.76,33.41,6.99,23.54.5,63.27-7.03,93.6-27.94,30.69-21.16,51.77-56.02,36.73-110.13-2.68-9.65-7.17-17.96-13-25.05-36.93-44.87-128.41-40.91-166.7-18.29-19.95,11.79-43.12,32.32-50.72,64.27-1.92,8.05-2.86,16.82-2.49,26.37Z"/><path class="uuid-9213d468-34b2-4a12-81fc-981aa45abbc4" d="m2233.37,1548.22c-2.78,7.27-3.84,13.85-3.9,19.63,9.12,2.25-.59,19.84,8.53,21.24,9.18,1.41,18.97-48.74,30.1-48.47,8.76.21,14.94,27.49,7.47,56,19.47-20.71,22.25-64.06,22.44-84.31-10.78-2.28-27.63-9.34-39.05-17.35-4.85,8.57-17.01,30.81-25.59,53.26Z"/><path class="uuid-394b1f68-46f8-46ab-afcc-a8b0b6291a5b" d="m2268.1,1540.62c-11.13-.27-20.92,49.88-30.1,48.47-9.12-1.4.59-18.98-8.53-21.24-.06-.02-.12-.04-.19-.05-8.65-1.87-22.14,35.07-31.6,55.34,14.1,5.72,37.49,18.39,48.15,25.22,7.35-8.82,14.61-18.65,20.46-28.83,4.24-7.38,7.26-15.19,9.28-22.91,7.47-28.51,1.29-55.79-7.47-56Z"/><path class="uuid-98a0dcf3-c1ef-46b8-9991-eb1e5378dc5b" d="m1593.71,1916.36c-27.1,6.7-56.57,11.98-80.34,11.29-60.9-1.76-220.9-75.04-235.85-75.7-3.31-.15-7.29,1.81-11.45,5.08-10.26,8.05-21.64,24.06-26.81,36.11-2.21,5.15-3.29,9.58-2.67,12.35,2.68,11.89,137.73,109.05,246.13,119.5,49.68,4.79,101.5,3.7,147.03-3.63-2.65-1.22-5.32-2.5-8.05-3.85-24.59-12.17-40.82-61.26-27.99-101.15Z"/><path class="uuid-98a0dcf3-c1ef-46b8-9991-eb1e5378dc5b" d="m2192.03,1621.07c-14.78-4.56-98.11,107.6-152.62,147.98-38.6,28.6-107.27,46.83-157.68,57.04,16.17,11.83,30.68,31.46,37.08,52.36,6.01,19.61-2.08,47.27-25.69,74.26,59.9-17.31,153.41-51.14,228.04-117.84,70.97-63.43,135.21-178.01,129.58-183.05-.89-.8-2.6-2-4.9-3.47-10.66-6.82-34.04-19.5-48.15-25.22-2.11-.86-4.03-1.57-5.66-2.07Z"/><path class="uuid-46e07fbd-14a3-423e-8bdd-ae0e51d71b6d" d="m1723.28,1994.45c-10.53-22.28-42.86-37.42-37.84-78.72.03-.28.08-.56.12-.84-2.65-12.21-2.83-24.68-1.75-34.52.69-6.3,3.58-12.64,8.05-18.57-41.14,9.1-83.76,16.12-96.76,50.58-.5,1.31-.96,2.64-1.39,3.97-12.83,39.89,3.4,88.97,27.99,101.15,2.73,1.35,5.4,2.63,8.05,3.85,34.96,16.16,63.32,21.29,95.47,16.48-1.16-15.08,3.04-32.84-1.94-43.39Z"/><path class="uuid-46e07fbd-14a3-423e-8bdd-ae0e51d71b6d" d="m1918.8,1878.45c-6.4-20.91-20.91-40.53-37.08-52.36-10.33-7.56-21.34-11.95-31.35-11.43-14.93.78-43.08,10.57-73.2,21.11,7.44,2.93,14.44,7.52,20.57,14.11,8.43,9.06,13.95,18.62,17.02,28.15,10.4,9.73,13.05,23.33,17.59,41.2,7.54,29.73,32.58,18.36,52.44,42.32,2.96-2.93,5.73-5.88,8.32-8.83,23.61-26.99,31.69-54.65,25.69-74.26Z"/><path class="uuid-394b1f68-46f8-46ab-afcc-a8b0b6291a5b" d="m1685.56,1914.89c6.87-51.72,62.04-56.19,86.67-52.7,21.8,3.09,34.49,8.31,42.54,15.84-3.07-9.53-8.58-19.08-17.02-28.15-6.13-6.59-13.13-11.18-20.57-14.11-30.66-12.07-68.83,4.18-85.32,26.03-4.48,5.93-7.36,12.27-8.05,18.57-1.08,9.84-.9,22.31,1.75,34.52Z"/><path class="uuid-76221d50-6f7a-48d1-bdee-164fb5fb93f9" d="m2285.94,1152.46c-.76-.45-1.5-.91-2.23-1.39,8.76,47.29,23.73,134.94,18.94,158.21-6.65,32.33-54.15,154.7-55.92,169.56-.6,5.04,4.6,10.79,12.21,16.12,11.43,8.01,28.27,15.07,39.05,17.35,3.21.68,5.89.94,7.72.66,12.06-1.79,66.65-102.99,81.4-175.7,14.99-73.93,25.61-156.26,11.78-213.97-2.38,6.58-5.07,13.52-8.1,20.87-10.49,25.43-68.6,29.53-104.87,8.28Z"/><path class="uuid-76221d50-6f7a-48d1-bdee-164fb5fb93f9" d="m2094.9,630.97c6.98,13.24,93,103.06,110.81,130.85,9.77,15.26,28.86,62.93,44.09,102.85,13.95-13.71,35.29-24.57,56.53-27.3,15.45-1.99,29.75.99,42.78,12.57-17.45-47.89-46.17-99.89-74.6-144.55-39.85-62.58-136.79-136.95-148.69-134.3-3.12.7-7.21,4.23-11.42,9.31-8.88,10.72-18.31,28.29-20.3,40.54-.66,4.09-.5,7.58.79,10.02Z"/><path class="uuid-b1bcb32e-30dd-4df7-befd-43c206b2953a" d="m2306.33,837.37c-21.24,2.74-42.58,13.59-56.53,27.3-8.69,8.55-14.52,18.21-15.64,27.72-1.52,12.96,2.18,37.34,6.71,64.34,14.32-14.27,34.82-20.26,54.18-17.07,2.21-2.77,4.58-4.53,7.08-4.98,27.19-4.91,60.34,22.56,65.65,61.89,5.31,39.34-45.38,90.94-73.54,79.69-2.79-1.12-5.19-3.38-7.22-6.52-11.3-1.41-23.01-5.23-33.33-11.35,1.7,37.62,3.05,74.98,30.04,92.68.73.48,1.46.94,2.23,1.39,36.27,21.24,94.38,17.15,104.87-8.28,3.03-7.35,5.72-14.29,8.1-20.87,27.87-77.17,12.37-105.61-7.62-184.49-11.98-47.26-26.11-74.6-42.17-88.87-13.03-11.58-27.34-14.56-42.78-12.57Z"/><path class="uuid-9213d468-34b2-4a12-81fc-981aa45abbc4" d="m2295.04,939.65c-19.35-3.19-39.85,2.8-54.18,17.07-11.76,11.71-19.35,29-18.73,51.38.64,22.99,14.09,39.92,31.54,50.28,10.32,6.12,22.03,9.94,33.33,11.35-16.36-25.28-9.08-108.61,8.03-130.08Z"/><path class="uuid-a060e095-8253-49a9-b014-78407b917f72" d="m1832.36,1919.22c-4.54-17.87-7.19-31.47-17.59-41.2-8.05-7.53-20.74-12.75-42.54-15.84-24.63-3.49-79.8.98-86.67,52.7-.04.28-.08.56-.12.84-5.02,41.3,27.31,56.44,37.84,78.72,4.99,10.55.78,28.3,1.94,43.39,1.29,16.77,9.21,30.25,43.79,26.85,65.67-6.45,140.01-66.96,119.67-97.88-1.27-1.93-2.56-3.67-3.88-5.26-19.86-23.96-44.9-12.6-52.44-42.32Z"/><path class="uuid-a060e095-8253-49a9-b014-78407b917f72" d="m2287.01,1069.74c2.04,3.14,4.43,5.4,7.22,6.52,28.15,11.25,78.85-40.35,73.54-79.69-5.31-39.34-38.45-66.8-65.65-61.89-2.5.45-4.87,2.21-7.08,4.98-17.11,21.47-24.4,104.8-8.03,130.08Z"/><path class="uuid-9213d468-34b2-4a12-81fc-981aa45abbc4" d="m697.61,1539.59c-3.15-7.11-7.03-12.54-11.07-16.68-8.06,4.83-13.56-14.49-21.01-9.06-7.51,5.47,20.87,47.95,12.79,55.6-6.36,6.02-29.97-8.99-44.75-34.49.61,22.66,18.9,48.06,33.45,64.77,8.95-6.34,31.91-14.22,48.07-15-5.21-14.67-11.66-31.99-17.48-45.15Z"/><path class="uuid-394b1f68-46f8-46ab-afcc-a8b0b6291a5b" d="m678.32,1569.45c8.09-7.65-20.3-50.13-12.79-55.6,7.46-5.43,12.96,13.89,21.01,9.06.06-.03.11-.06.17-.09,7.34-4.69-22.96-57.58-33.56-82.37-6.99,10.25-22.98,22.17-35.57,28.11.79,13.85,2.62,29.33,6.43,43.62,2.19,8.23,5.55,15.89,9.55,22.78,14.78,25.49,38.39,40.51,44.75,34.49Z"/><path class="uuid-d38653b6-221f-4f1e-88a7-aed294046270" d="m606.23,840.79c20.28-18.59,74.65,2.34,98.49,36.95.5.73.97,1.46,1.43,2.2,12.11-46.54,35.71-132.27,49.91-151.32,19.73-26.47,114.62-117.16,122.52-129.87,2.22-3.56,1.04-9.25-2.05-15.67-6.36-13.2-20.83-29.48-30.65-36.72-2.44-1.79-4.59-3.04-6.26-3.53-11.68-3.49-104.03,65.02-148.2,124.62-44.92,60.6-89.43,130.67-101.37,188.8,4.94-4.95,10.32-10.09,16.18-15.47Z"/><path class="uuid-76221d50-6f7a-48d1-bdee-164fb5fb93f9" d="m1576.88,2139.2c-17.01-1.44-41.13-3.17-59.01-3.18-7.78,0-14.31,1.34-19.73,3.36,1.15,9.32-18.75,6.52-16.8,15.54,1.96,9.08,52.3.36,56.01,10.85,2.92,8.26-20.36,23.75-49.66,26.93,26.29,10.81,67.78-2.04,86.77-9.08-1.88-13.93-2-33.85,2.42-44.42Z"/><path class="uuid-9213d468-34b2-4a12-81fc-981aa45abbc4" d="m1537.35,2165.77c-3.71-10.49-54.06-1.77-56.01-10.85-1.94-9.02,17.95-6.21,16.8-15.54,0-.07,0-.13-.02-.19-1.31-8.61-61.94-2.35-88.91-2.71,6.53,10.55,10.95,29.99,11.28,43.91,12.98,4.89,27.88,9.49,42.48,11.81,8.41,1.33,16.78,1.37,24.71.51,29.29-3.18,52.58-18.68,49.66-26.93Z"/><path class="uuid-e8e2872a-4fb0-4927-a10a-6316ebaf9fc1" d="m915.73,1861.21c.87-.16,1.73-.29,2.59-.41-37.64-29.94-106.44-86.26-118.1-106.97-16.19-28.77-60.63-152.27-69.04-164.65-2.46-3.62-8.54-4.81-16.09-4.44-16.17.78-39.12,8.66-48.07,15-1.16.82-2.1,1.62-2.74,2.38-7.92,9.26,17.27,121.45,53.84,186,37.19,65.63,83.19,134.73,131.49,169.21-2.52-6.53-5.04-13.53-7.58-21.06-8.77-26.07,32.4-67.29,73.71-75.05Z"/><path class="uuid-e8e2872a-4fb0-4927-a10a-6316ebaf9fc1" d="m1402.05,2129.43c-13.95-5.41-137.8-16.76-169.48-26.05-17.39-5.1-63.07-28.56-100.75-48.69-1.53,19.5-10.52,41.69-24.75,57.7-10.35,11.64-23.1,18.77-40.54,18.58,44.59,24.69,100.38,45.09,151.14,60.14,71.13,21.09,193.09,13.61,200.32,3.8,1.9-2.57,2.66-7.93,2.51-14.52-.33-13.92-4.75-33.36-11.28-43.91-2.18-3.52-4.59-6.05-7.17-7.05Z"/><path class="uuid-a121f20b-b55f-417e-9439-6600f80a32ce" d="m1107.07,2112.38c14.24-16,23.22-38.19,24.75-57.7.95-12.16-.99-23.27-6.38-31.18-7.35-10.78-26.15-26.75-47.27-44.15-1.45,20.17-12.99,38.14-29.69,48.43.15,3.54-.48,6.42-2.08,8.4-17.3,21.55-60.34,22.56-90.15-3.64-29.82-26.2-25.42-98.41,3.21-108.39,2.84-.99,6.13-.86,9.73.18,9.45-6.35,20.8-11.15,32.6-13.3-25.96-27.28-51.5-54.59-83.47-50.24-.86.12-1.72.25-2.59.41-41.31,7.76-82.48,48.98-73.71,75.05,2.54,7.54,5.05,14.54,7.58,21.06,29.6,76.53,59.95,87.81,126.79,134.23,40.04,27.81,68.65,39.17,90.13,39.4,17.44.19,30.18-6.95,40.54-18.58Z"/><path class="uuid-9213d468-34b2-4a12-81fc-981aa45abbc4" d="m1048.48,2027.78c16.7-10.29,28.24-28.26,29.69-48.43,1.19-16.55-4.42-34.58-19.57-51.07-15.56-16.93-36.83-20.89-56.79-17.25-11.8,2.15-23.15,6.95-32.6,13.3,28.94,8.34,78.11,76.01,79.28,103.44Z"/><path class="uuid-a060e095-8253-49a9-b014-78407b917f72" d="m969.2,1924.34c-3.6-1.04-6.89-1.17-9.73-.18-28.63,9.98-33.03,82.18-3.21,108.39,29.82,26.2,72.85,25.19,90.15,3.64,1.59-1.98,2.23-4.86,2.08-8.4-1.18-27.43-50.35-95.1-79.28-103.44Z"/><path class="uuid-d38653b6-221f-4f1e-88a7-aed294046270" d="m653.15,1440.45c2.33-3.42,3.67-6.65,3.54-9.41-.72-14.95-40.55-132.77-44.89-165.49-2.39-17.96.54-69.23,3.66-111.84-18.45,6.51-42.38,7.29-62.78.76-14.84-4.75-26.53-13.51-33.42-29.52-4.5,50.77-.53,110.04,6.3,162.54,9.56,73.57,65.84,182.02,77.74,184.67,3.12.69,8.32-.78,14.29-3.59,12.59-5.94,28.57-17.87,35.57-28.11Z"/><path class="uuid-76221d50-6f7a-48d1-bdee-164fb5fb93f9" d="m566.09,990.26c.73-5.83,5.6-10.72,11.06-10.98,4.42-7.27,10.52-13.54,17.31-18.79.16-.78.35-1.56.59-2.32-19.44-11.07-26.89-38.44-19.43-52.87,13.98-27.05,32.24-34.65,62.57-22.17,22.06,9.08,28.41,37.05,16.4,57.38,2.76,1.23,6.31,4.66,9.82,9.16,11.23,6.14,21.92,15.56,29.67,26.94,14.41-34.79,29.02-69.21,12.08-96.67-.46-.74-.93-1.47-1.43-2.2-23.84-34.61-78.21-55.54-98.49-36.95-5.86,5.37-11.24,10.51-16.18,15.47-52.21,52.32-55.77,83.75-67.18,147.88,10.86-14.06,24.4-18.75,43.22-13.87Z"/><path class="uuid-76221d50-6f7a-48d1-bdee-164fb5fb93f9" d="m552.68,1154.47c20.4,6.53,44.33,5.75,62.78-.76,11.5-4.06,20.87-10.34,25.92-18.47,6.87-11.09,13.85-34.75,21.2-61.11-23.43,8.44-50.03,1.53-66.67-16.45-1.78-.37-3.47-.79-5.04-1.26-4.41,5.55-10.4,10.25-18.08,13.44-30,12.45-50-4.56-57.31-23.99-5.42,37.07-3.5,62.14,3.8,79.09,6.89,16.02,18.59,24.78,33.42,29.52Z"/><path class="uuid-394b1f68-46f8-46ab-afcc-a8b0b6291a5b" d="m664.39,949.67c9.47,12.15,18.57,32.17,10.54,38.37-8.73,6.75-26.99-15.08-30.96-26.59-.93-2.69-1.44-5.31-1.57-7.75-2.75,1.95-5.82,3.65-9.22,5.06-2.26.94-4.47,1.71-6.62,2.32,12.28,10.91,25.18,27.9,25.34,31.72.79,18.77-21.04,5.56-31.75-3.49-10.72-9.05-26.99-22.31-25.71-28.81,0,0,0,0,0,0-6.79,5.25-12.9,11.51-17.31,18.79,1.65-.08,3.34.26,5,1.12,12.09,6.29,51.43,28.54,44.13,40.75-3.64,6.09-15.34,3.51-27.38-1.88,1.13,4.48,1.5,9.2,1.11,13.91,13.53,3.17,27.54,9.96,26.45,18.32-1.1,8.34-17.81,8.8-30.55,6.18,16.65,17.98,43.24,24.89,66.67,16.45,15.61-5.62,29.82-18.06,38.75-38.59,9.17-21.09,4.16-42.13-7.26-58.91-7.74-11.38-18.44-20.8-29.67-26.94Z"/><path class="uuid-e8e2872a-4fb0-4927-a10a-6316ebaf9fc1" d="m1533.93,308.08c14.05,1.17,24.04.06,30.17-5.32,6.36-5.58,8.57-15.75,6.81-32.8-1.3-12.59-6.32-23.29-15.23-31.3-10.81,2.62-21.07,1.41-26.61-6.66-1.16-1.68-1.66-4.04-1.59-6.84-13.21-2.91-29.47-3.32-48.95-.66-9.59,1.31-17.76,4.25-24.64,8.3.33,2.68.09,5-.85,6.75-3.38,6.35-9.72,9.28-17.22,9.85-17.06,23.92-14.77,56.96-1.28,64.22.88.48,1.81.89,2.75,1.28,24.78,10.18,69.07-9.11,96.64-6.82Z"/><path class="uuid-e8e2872a-4fb0-4927-a10a-6316ebaf9fc1" d="m1390.64,231.7c9.94,10.16,29.96,18.84,45.18,17.7,7.5-.56,13.84-3.5,17.22-9.85.93-1.75,1.18-4.07.85-6.75-1.49-11.99-14.76-31.17-31.35-39.17-4.14-2-8.47-3.31-12.89-3.63-17.63-1.27-26.86,11.29-26.44,24.25.21,6.22,2.63,12.53,7.44,17.45Z"/><path class="uuid-e8e2872a-4fb0-4927-a10a-6316ebaf9fc1" d="m1527.47,225.16c-.07,2.8.44,5.16,1.59,6.84,5.54,8.07,15.8,9.28,26.61,6.66,13.26-3.21,27.34-12.18,34.53-21.39,3.66-4.69,5.44-10.21,5.54-15.63.26-13.91-10.55-27.13-29.05-23.7-7.66,1.42-14.74,5.84-20.73,11.62-10.98,10.6-18.26,25.8-18.49,35.6Z"/><path class="uuid-9213d468-34b2-4a12-81fc-981aa45abbc4" d="m2471.19,1567.45c-6.25,10.63-14.66,25.85-21.34,41.25-3.09,7.14-4.45,13.67-4.75,19.44,9.01,2.65-1.46,19.79,7.59,21.59,9.11,1.81,21.09-47.86,32.2-47.1,8.74.6,13.72,28.12,5.01,56.27,14.13-13.77,20.71-38.79,23.77-59.57-8.85.86-31.64-16.61-42.47-31.88Z"/><path class="uuid-76221d50-6f7a-48d1-bdee-164fb5fb93f9" d="m2484.89,1602.63c-11.11-.76-23.08,48.91-32.2,47.1-9.05-1.8,1.42-18.94-7.59-21.59-.06-.02-.12-.04-.18-.06-6.18-1.63-28.14,39.63-45.27,72.94,14.47,3.03,37.02,16.64,50,26.97,9.37-14.43,20.45-31.59,29.97-46.61,4.56-7.19,7.92-14.86,10.28-22.48,8.71-28.15,3.73-55.68-5.01-56.27Z"/><path class="uuid-b1bcb32e-30dd-4df7-befd-43c206b2953a" d="m1950.85,2178.19c-15.48-21.23-22.21-50.97-17.67-72.5-33.49,6.91-91.64,19.11-112.91,24.73-46.72,12.36-221.61-.87-236.36,1.65-3.08.53-5.37,3.18-7.02,7.13-4.42,10.57-4.3,30.49-2.42,44.42.79,5.86,1.89,10.65,3.1,13.24,5.14,11.05,149.23,41.1,254.21,30.65,38.22-3.8,97.04-11.73,144.43-31.49-11.21-4.15-19.86-10.31-25.35-17.83Z"/><path class="uuid-b1bcb32e-30dd-4df7-befd-43c206b2953a" d="m2388.1,1702.4c-11.2,10.62-107.33,137.88-146.61,169-15.79,12.51-59.81,47.89-91.47,73.36,5.11-.16,10.31.44,15.6,1.98,40.36,11.73,71.12,54.8,66.09,81.84-.65,3.52-1.35,6.92-2.08,10.24,36.03-31.92,68.39-71.56,89.79-94.91,73.21-79.9,146.16-196.11,139.7-206.67-1.36-2.22-4.8-5.52-9.48-9.24-12.98-10.33-35.53-23.93-50-26.97-5.12-1.07-9.24-.83-11.55,1.37Z"/><path class="uuid-d38653b6-221f-4f1e-88a7-aed294046270" d="m2059.15,2125.6c-32.9-11.61-47.91-32.06-47.09-50.89-4.25-11.34-5.21-22.62-1.8-31.54,1.12-2.93,2.49-6.05,4.07-9.23-30.65,20.69-62.17,40.87-73.16,54.03-3.9,4.67-6.54,10.78-8,17.74-4.53,21.53,2.19,51.27,17.67,72.5,5.49,7.52,14.14,13.68,25.35,17.83,30.64,11.36,80.37,7.74,136.8-23.82.93-.52,1.85-1.04,2.77-1.56-9.72-13.28-15.38-32.53-16.82-45.41-12.87,4.32-26.86,4.93-39.8.36Z"/><path class="uuid-d38653b6-221f-4f1e-88a7-aed294046270" d="m2165.62,1946.74c-5.29-1.54-10.48-2.14-15.6-1.98-26.77.85-51.38,22.92-76.37,44.51,11.72.46,24.78,5.32,39.02,16.66,6.56,3.81,13.51,10.26,19.43,19.57,4.62,6.54,7.91,13.92,9.77,21.63,1.06,3.5,1.99,7.21,2.74,11.14,3.67,19.23-4.56,37.52-18.47,50.65,12.25,6.65,24.62,21.29,31.6,35.86,41.44-28.83,61.08-56.9,71.88-105.96.73-3.32,1.42-6.73,2.08-10.24,5.03-27.05-25.73-70.11-66.09-81.84Z"/><path class="uuid-76221d50-6f7a-48d1-bdee-164fb5fb93f9" d="m2012.06,2074.7c.22-4.94,1.51-9.77,3.87-14.29,6.64-12.74,39.91-14.67,52.44-4.85,0,0,.63-43.82,26.77-53.19,4.3-1.54,10.7-.43,17.54,3.55-14.24-11.34-27.3-16.2-39.02-16.66-28.3-1.1-48.8,23.48-59.32,44.66-1.58,3.19-2.95,6.3-4.07,9.23-3.42,8.92-2.46,20.2,1.8,31.54Z"/><path class="uuid-76221d50-6f7a-48d1-bdee-164fb5fb93f9" d="m2132.11,2025.49c3.82,6.01,7.21,13.2,9.77,21.63-1.86-7.72-5.15-15.09-9.77-21.63Z"/><path class="uuid-98a0dcf3-c1ef-46b8-9991-eb1e5378dc5b" d="m2095.14,2002.37c-26.13,9.37-26.77,53.19-26.77,53.19-12.54-9.83-45.8-7.89-52.44,4.85-2.36,4.53-3.65,9.36-3.87,14.29-.83,18.84,14.19,39.29,47.09,50.89,12.95,4.57,26.94,3.96,39.8-.36-.71-6.34-.4-11.14.95-12.92,6.82-8.91,16.49-8.69,26.24-3.4,13.91-13.13,22.14-31.42,18.47-50.65-.75-3.93-1.68-7.64-2.74-11.14-2.56-8.43-5.95-15.63-9.77-21.63-5.92-9.3-12.88-15.75-19.43-19.57-6.84-3.98-13.23-5.09-17.54-3.55Z"/><path class="uuid-a060e095-8253-49a9-b014-78407b917f72" d="m642.4,953.7c.13,2.44.64,5.06,1.57,7.75,3.97,11.51,22.23,33.34,30.96,26.59,8.03-6.2-1.07-26.23-10.54-38.37-3.51-4.5-7.06-7.92-9.82-9.16-2.94,4.98-6.97,9.51-12.17,13.19Z"/><path class="uuid-a060e095-8253-49a9-b014-78407b917f72" d="m626.44,1051.49c1.1-8.35-12.91-15.14-26.45-18.32-.68,8.19-3.68,16.35-9.14,23.23,1.57.47,3.26.9,5.04,1.26,12.73,2.63,29.45,2.16,30.55-6.18Z"/><path class="uuid-9584eb64-ef49-4ca6-9d9e-568c64f27d17" d="m620.16,989.32c10.72,9.05,32.54,22.27,31.75,3.49-.16-3.82-13.06-20.82-25.34-31.72-12.58,3.6-23.16,1.86-31.53-2.91-.24.75-.43,1.53-.59,2.32,0,0,0,0,0,0-1.29,6.51,14.99,19.76,25.71,28.81Z"/><path class="uuid-a060e095-8253-49a9-b014-78407b917f72" d="m626.26,1021.15c7.3-12.21-32.04-34.46-44.13-40.75-1.65-.86-3.35-1.2-5-1.12-5.46.26-10.32,5.15-11.06,10.98,3.69.96,7.57,2.26,11.68,3.96,11.23,4.62,18.38,14.14,21.12,25.05,12.04,5.39,23.74,7.97,27.38,1.88Z"/><path class="uuid-a060e095-8253-49a9-b014-78407b917f72" d="m626.57,961.09c2.15-.62,4.35-1.38,6.62-2.32,3.4-1.41,6.47-3.12,9.22-5.06,5.19-3.67,9.22-8.2,12.17-13.19,12.01-20.33,5.66-48.3-16.4-57.38-30.33-12.48-48.58-4.88-62.57,22.17-7.46,14.43-.01,41.8,19.43,52.87,8.37,4.76,18.95,6.51,31.53,2.91Z"/><path class="uuid-a060e095-8253-49a9-b014-78407b917f72" d="m572.77,1069.84c7.68-3.19,13.67-7.89,18.08-13.44,5.46-6.87,8.46-15.04,9.14-23.23.39-4.71.02-9.43-1.11-13.91-2.74-10.91-9.89-20.43-21.12-25.05-4.11-1.69-7.99-3-11.68-3.96-18.82-4.88-32.36-.18-43.22,13.87-2.71,3.51-5.25,7.58-7.67,12.25-3.95,7.64-3.71,18.91.26,29.47,7.32,19.42,27.31,36.44,57.31,23.99Z"/><path class="uuid-46e07fbd-14a3-423e-8bdd-ae0e51d71b6d" d="m2145,344.29c-1.36.55-2.73,1.04-4.09,1.46,32.32,28.62,69.28,62.47,79.8,76.52,44.02,58.77,110.1,140.67,119.77,152.08,3.1,3.66,10.15,2.4,18.5-1.33,13.51-6.03,30.45-18.52,39.78-27.12,2.88-2.66,5.05-4.95,6.15-6.56,6.9-10.05-54.94-101.31-98.15-161.62-31.1-43.42-65.85-83.93-101.65-113.44,4.12,25.39-25.27,65.83-60.13,80.01Z"/><path class="uuid-46e07fbd-14a3-423e-8bdd-ae0e51d71b6d" d="m1550.24,54.88c2.32,9.62,6.11,17.4,11.42,19.11,14.24,4.59,164.06,40.1,196.22,47.55,28.58,6.62,120.82,48.57,140.99,57.82-2.62-17.57,5.61-35.47,16.14-53.59,9.22-15.86,26.08-27.53,50.37-29.25-47.01-32.66-125.33-46.45-197.69-63.42-72.23-16.94-210.26-32.38-216.92-22.17-.58.89-1.09,2.08-1.52,3.51-2.65,8.77-2.37,26.53.99,40.45Z"/><path class="uuid-b1bcb32e-30dd-4df7-befd-43c206b2953a" d="m1915.01,125.76c-10.53,18.12-18.77,36.02-16.14,53.59,1.73,11.58,8.17,23.01,21.78,34.28,8.87,7.34,23.85,20.37,41.31,34.72.68-8.56,3.17-16.84,7.14-24.33-1.39-9.28.97-18.5,7.13-24.68,7.51-7.53,15.07-13.4,22.58-17.86-13.9-8.38-18.4-31.45.45-39.38,26.8-11.28,39.74,11.67,32.56,28.18,13.05-1.27,25.42,1.14,36.51,5.86,2.86-15.74,22.11-28.16,36.45-13.99,16.48,16.3,9.49,32.79-3.14,38.64,7.42,8.69,12.65,18.12,14.97,26.76,1.19,4.44,1.65,9.32,1.45,14.41,33.22-11.75,43.37,30.62,17.21,41.51-11.38,4.74-21.38.14-27.12-7.56-9.92,17.97-26.48,32.08-46.11,31.15-3.61,2.12-7.4,3.99-11.3,5.56,30.33,21.17,60.26,42.46,90.18,33.13,1.36-.42,2.73-.91,4.09-1.46,34.86-14.18,64.25-54.62,60.13-80.01-.48-2.97-1.42-5.73-2.86-8.23-50.74-87.57-76.68-93.31-153.94-136.09-33.5-18.55-61.2-24.98-82.94-23.44-24.29,1.72-41.15,13.39-50.37,29.25Z"/><path class="uuid-394b1f68-46f8-46ab-afcc-a8b0b6291a5b" d="m2057.05,306.51c-44.64-7.81-41.3-49.22-41.3-49.22-28.43,1.55-44.06-15.97-46.65-33.27-3.97,7.48-6.46,15.76-7.14,24.33-1.62,20.31,6.91,42.19,29.67,58.68,18.63,13.49,40.25,13.13,59.09,5.58,3.9-1.56,7.69-3.44,11.3-5.56-1.64-.08-3.29-.25-4.97-.55Z"/><path class="uuid-98a0dcf3-c1ef-46b8-9991-eb1e5378dc5b" d="m2126.15,2108.92c-9.75-5.29-19.42-5.51-26.24,3.4-1.35,1.77-1.66,6.57-.95,12.92,1.44,12.88,7.1,32.13,16.82,45.41,9.61,13.13,23.17,20.43,40.55,9.95,10.08-6.08,8.58-20.91,1.43-35.82-6.98-14.57-19.35-29.21-31.6-35.86Z"/><path class="uuid-e8e2872a-4fb0-4927-a10a-6316ebaf9fc1" d="m2542.95,1257.18c-3.11-2.87-5.72-6.04-7.91-9.46-7.27,39.3-19.69,105.21-25.24,127.14-8.1,32-41.94,162.68-44.38,177.44-.66,4.02,1.72,9.43,5.77,15.15,10.83,15.27,33.63,32.74,42.47,31.88.01,0,.02,0,.03,0,12.12-1.25,61.22-120.72,79.22-192.69,11.44-45.74,26.9-91.76,35.09-133.54-21.81,11.27-60.26,6.99-85.06-15.91Z"/><path class="uuid-e8e2872a-4fb0-4927-a10a-6316ebaf9fc1" d="m2444.64,660.96c-8.64,7.13-14.49,14.49-12.72,19.85,4.7,14.21,40.13,70.39,80.11,178.13,7.07,19.06,19.78,80.05,28.5,124.09,11.57-19.63,41.5-34.49,68.78-33.45,8.86.34,18.33,4.43,27.51,12.11-9.61-48.12-28.06-100.91-47.61-147.03-28.46-67.13-86.68-173.88-100.23-176.92-.24-.05-.46-.08-.67-.07-7.58.4-29.41,11.53-43.67,23.3Z"/><path class="uuid-98a0dcf3-c1ef-46b8-9991-eb1e5378dc5b" d="m2540.54,983.03c-1.75,2.96-3.08,6.03-3.92,9.17-3.36,12.61-3.77,37.49-3.87,65.05,5.61-5.08,11.96-8.92,18.71-11.53,3.51-10.6,17.9-17.26,36.55-12.35,50.16,13.2,51.71,31.03,46.24,40.03,30.75,36.49,3.56,72.81-20.42,91.21-3.7,9.08-15.5,16.04-32.18,15.14-46.51-2.51-53.83-17.87-51.84-28.52-.1-.09-.19-.19-.29-.28-3.91,35.99-9.85,72.7,5.52,96.78,2.18,3.42,4.79,6.59,7.91,9.46,24.8,22.9,63.25,27.18,85.06,15.91,3.74-1.93,7-4.3,9.6-7.13,47.09-51.12,54.71-90.85,48.48-178.83-4.47-63.16-25.92-105.91-49.27-125.45-9.18-7.68-18.65-11.77-27.51-12.11-27.28-1.04-57.21,13.82-68.78,33.45Z"/><path class="uuid-9213d468-34b2-4a12-81fc-981aa45abbc4" d="m2533.57,1143.05c6.44-7.74,19.09.68,39.6-.74,20.51-1.42,38.93-.31,41.57,12.81.66,3.26.31,6.49-.91,9.48,23.98-18.4,51.17-54.72,20.42-91.21-1.01,1.66-2.25,3.02-3.47,3.99-7.87,6.28-21.65-2.89-42.02-5.65-20.37-2.75-38.19-7.57-38.12-20.95,0-1.76.3-3.46.83-5.07-6.75,2.61-13.1,6.45-18.71,11.53-10.77,9.76-18.76,24.09-21.41,43.12-2.85,20.44,5.29,37.77,18.19,50.58.1.09.19.19.29.28.63-3.39,2.21-6.31,3.76-8.18Z"/><path class="uuid-a060e095-8253-49a9-b014-78407b917f72" d="m2588.75,1071.74c20.37,2.75,34.16,11.93,42.02,5.65,1.22-.98,2.47-2.34,3.47-3.99,5.47-9,3.92-26.83-46.24-40.03-18.65-4.91-33.04,1.76-36.55,12.35-.53,1.61-.82,3.31-.83,5.07-.06,13.38,17.76,18.19,38.12,20.95Z"/><path class="uuid-a060e095-8253-49a9-b014-78407b917f72" d="m2614.74,1155.12c-2.64-13.12-21.07-14.23-41.57-12.81-20.51,1.42-33.16-7-39.6.74-1.55,1.87-3.13,4.79-3.76,8.18-1.99,10.65,5.33,26.01,51.84,28.52,16.68.9,28.47-6.06,32.18-15.14,1.22-3,1.57-6.23.91-9.48Z"/><path class="uuid-76221d50-6f7a-48d1-bdee-164fb5fb93f9" d="m522.32,599.59c8.32-5.47,18.3-16.21,27.6-37.08,3.19-7.16,4.47-13.71,4.63-19.5-.11,0-.22,0-.32-.03-9.43-2.16.71-19.87-8.46-21.39-9.17-1.52-19.55,48.51-30.67,48.11-8.79-.32-14.65-27.88-6.71-56.41-12.75,12.29-20.46,32.92-25.07,51.63,12.96,5.53,35.07,22.29,39.01,34.68Z"/><path class="uuid-9213d468-34b2-4a12-81fc-981aa45abbc4" d="m515.09,569.69c11.12.4,21.51-49.62,30.67-48.11,9.17,1.52-.97,19.23,8.46,21.39.1.02.21.03.32.03,5.72.3,14.82-25.18,23.25-49.51-16.1-8.91-36.2-24.23-41.69-28.24-6.57,7.94-12.97,16.61-18.26,25.56-4.27,7.23-7.35,14.88-9.46,22.47-7.94,28.53-2.07,56.09,6.71,56.41Z"/><path class="uuid-76221d50-6f7a-48d1-bdee-164fb5fb93f9" d="m592.56,499.76c15.18,2.96,121.37-107.54,171.29-153.47,18.57-17.08,44.13-33.39,70.64-47.79-21.02-4.02-44.04-21.58-54.94-43.37-7.69-15.38-4.1-39.6,12.88-66.21-38.52,26.31-79.86,59.7-116.84,100.58-63.85,70.6-146.18,170.94-140.04,175.35.16.11.35.25.55.4,5.5,4.01,25.59,19.34,41.69,28.24,5.7,3.16,10.9,5.51,14.77,6.27Z"/><path class="uuid-76221d50-6f7a-48d1-bdee-164fb5fb93f9" d="m1082.34,157.39c37.72-16.82,88.27-38.34,107.62-41.86,32.48-5.92,175.32-35.06,189.77-38.97,2.37-.64,4.73-2.5,7.01-5.2,8.64-10.24,15.97-32.61,17.04-47.02.37-4.96,0-8.98-1.33-11.23-6.17-10.51-145.16.1-218.11,13.61-53.71,9.95-108.71,24.98-152.94,45.83,10.21,4.72,52.88,47.93,50.94,84.84Z"/><path class="uuid-e8e2872a-4fb0-4927-a10a-6316ebaf9fc1" d="m779.55,255.12c10.9,21.8,33.92,39.36,54.94,43.37,6.08,1.16,11.99,1.2,17.39-.13,12.67-3.12,34.68-14.72,58.89-27.89-16.91-5.85-29.74-18.71-36.39-34.27-18.18-13.55-23.49-44.11-1.07-76.76,32.1-46.74,95.16-37.57,117.12-6.76,12.06,16.92,10.12,29.61,5.92,37.62,2.11,12.2,1.68,25.57-1.88,37.94,38.18-15.84,78.48-29.83,86.69-62.86.65-2.62,1.02-5.29,1.17-8,1.94-36.91-40.73-80.12-50.94-84.84,0,0,0,0,0,0-10.96-5.06-94.01,1.34-168.15,49.11-33.56,21.62-56.77,45.26-70.81,67.26-16.98,26.61-20.57,50.83-12.88,66.21Z"/><path class="uuid-9213d468-34b2-4a12-81fc-981aa45abbc4" d="m996.35,190.32c-3.45,6.57-8.42,9.99-8.42,9.99,0,0-46.04,37.16-84.02,42.76-11.45,1.69-21.69-1-29.54-6.85,6.65,15.56,19.49,28.42,36.39,34.27,13.73,4.75,30.14,4.87,48.1-1.96,19.29-7.33,30.57-22.8,35.6-40.27,3.56-12.37,3.98-25.74,1.88-37.94Z"/><path class="uuid-d38653b6-221f-4f1e-88a7-aed294046270" d="m903.92,243.06c37.98-5.59,84.02-42.76,84.02-42.76,0,0,4.97-3.42,8.42-9.99,4.2-8.01,6.14-20.7-5.92-37.62-21.96-30.81-85.02-39.98-117.12,6.76-22.42,32.65-17.12,63.2,1.07,76.76,7.85,5.85,18.09,8.54,29.54,6.85Z"/><path class="uuid-a060e095-8253-49a9-b014-78407b917f72" d="m2015.75,257.29s-3.34,41.41,41.3,49.22c1.68.29,3.33.47,4.97.55,19.64.93,36.19-13.17,46.11-31.15-7.79-10.45-7.73-26.61,7.43-32.99.84-.35,1.67-.67,2.48-.95.2-5.09-.26-9.97-1.45-14.41-2.32-8.65-7.54-18.08-14.97-26.76-8.18,3.79-18.71,3.12-26.79-4.92-6.05-6.03-7.7-13.16-6.51-19.73-11.09-4.72-23.46-7.12-36.51-5.86-2.25,5.17-6.47,9.71-12.86,12.37-7.62,3.17-14.62,2.16-20.14-1.17-7.51,4.46-15.07,10.33-22.58,17.86-6.16,6.18-8.52,15.4-7.13,24.68,2.59,17.3,18.23,34.82,46.65,33.27Z"/><path class="uuid-a060e095-8253-49a9-b014-78407b917f72" d="m2018.96,182.66c6.39-2.66,10.61-7.2,12.86-12.37,7.18-16.51-5.76-39.46-32.56-28.18-18.84,7.93-14.35,31-.45,39.38,5.52,3.33,12.53,4.35,20.14,1.17Z"/><path class="uuid-a060e095-8253-49a9-b014-78407b917f72" d="m2108.14,275.91c5.74,7.7,15.75,12.3,27.12,7.56,26.16-10.89,16-53.26-17.21-41.51-.82.29-1.64.6-2.48.95-15.15,6.38-15.21,22.54-7.43,32.99Z"/><path class="uuid-a060e095-8253-49a9-b014-78407b917f72" d="m2074.84,195.87c8.08,8.05,18.62,8.71,26.79,4.92,12.64-5.85,19.63-22.34,3.14-38.64-14.34-14.17-33.59-1.75-36.45,13.99-1.19,6.56.46,13.7,6.51,19.73Z"/><path class="uuid-394b1f68-46f8-46ab-afcc-a8b0b6291a5b" d="m459.27,1703.3c-4.19-11.44-11.73-30.64-20.97-48.12-3.63-6.88-7.88-12.02-12.2-15.87-7.7,5.38-14.53-13.52-21.59-7.58-7.11,5.98,24.16,46.39,16.62,54.58-5.93,6.45-30.52-6.89-47.04-31.29,2.17,22.42,21.95,46.33,37.59,62,12.18-6.69,34.1-14.22,47.6-13.72Z"/><path class="uuid-76221d50-6f7a-48d1-bdee-164fb5fb93f9" d="m421.13,1686.31c7.54-8.19-23.73-48.6-16.62-54.58,7.06-5.94,13.89,12.95,21.59,7.58.05-.04.11-.06.16-.1,5.92-4.39-19.49-60.71-35.27-95.78-12.58,8.95-36.02,17.29-51.08,20.53,5.99,18.24,15.18,46,23.06,68.99,2.76,8.05,6.64,15.46,11.11,22.07,16.52,24.4,41.11,37.74,47.04,31.29Z"/><path class="uuid-46e07fbd-14a3-423e-8bdd-ae0e51d71b6d" d="m316.93,888c28.66,1.89,58.4,18.32,70.4,37.81,11.71-32.47,27.59-77.07,33.1-95.36,13.94-46.27,96.37-210.42,101.95-224.3.78-1.95.7-4.17-.06-6.56-3.94-12.39-26.04-29.14-39.01-34.68-2.31-.99-4.34-1.62-5.92-1.8-12.11-1.41-99.6,131.38-145.7,226.28-12.98,26.71-30.31,65.22-41.2,104.76,9.17-4.62,18.18-6.68,26.43-6.14Z"/><path class="uuid-46e07fbd-14a3-423e-8bdd-ae0e51d71b6d" d="m399.64,1531.66c-1.29-15.38-40.48-169.98-40.2-220.09.11-19.31.04-72.04-.04-112.17-.81.62-1.64,1.22-2.5,1.8-34.88,23.46-87.65,19.46-105.18-1.74-6.03-7.29-11.34-14.31-15.99-21.21-.15,53.55,12.89,113.25,18.39,148.79,16.56,107.1,61.64,236.69,73.92,238.25,2.39.3,6.63-.21,11.88-1.34,15.06-3.24,38.5-11.58,51.08-20.53,5.53-3.94,8.96-7.99,8.65-11.77Z"/><path class="uuid-98a0dcf3-c1ef-46b8-9991-eb1e5378dc5b" d="m258.17,998.44c14,14.77,48.02-37.46,89.39.22,15.72,3.32,29.02,10.93,34.92,21.5,1.53,2.74,3.05,5.78,4.48,9.04,3.76-36.79,8.49-73.91,5.43-90.78-.77-4.27-2.53-8.51-5.06-12.61-12-19.49-41.74-35.92-70.4-37.81-8.24-.54-17.26,1.52-26.43,6.14-22.96,11.56-46.9,39.16-62.23,82.16,11.8,4.64,23.1,14.97,29.9,22.15Z"/><path class="uuid-98a0dcf3-c1ef-46b8-9991-eb1e5378dc5b" d="m356.9,1201.21c.86-.58,1.69-1.18,2.5-1.8,25.9-19.76,24.45-57.91,23.81-96.04-7.88,8.72-20.02,15.64-37.92,19.3-3.33,4.04-7.08,7.46-11.27,10.05-36.14,22.34-51.27-12.67-60.79-17-8-3.64-32.33,29.77-53.93,32.27,4.12,10.11,9.54,20.05,16.44,30.28,4.65,6.9,9.96,13.92,15.99,21.21,17.53,21.2,70.3,25.2,105.18,1.74Z"/><path class="uuid-76221d50-6f7a-48d1-bdee-164fb5fb93f9" d="m347.55,998.66c1.73,1.58,3.48,3.3,5.23,5.2,18.76,20.34,17.92,87.95-7.5,118.8,17.9-3.66,30.04-10.57,37.92-19.3,18.98-21.01,13.26-52.5,3.75-74.16-1.43-3.26-2.95-6.3-4.48-9.04-5.9-10.57-19.2-18.18-34.92-21.5Z"/><path class="uuid-e8e2872a-4fb0-4927-a10a-6316ebaf9fc1" d="m273.22,1115.71c9.52,4.33,24.65,39.34,60.79,17,4.19-2.59,7.94-6.01,11.27-10.05,25.42-30.84,26.27-98.46,7.5-118.8-1.76-1.9-3.5-3.62-5.23-5.2-41.36-37.68-75.39,14.55-89.39-.22-6.79-7.17-18.1-17.51-29.9-22.15-13.52-5.32-27.69-3.16-36.46,19.82-16.43,43.03-8.06,135.55,15.6,149.48,3.78,2.22,7.78,2.86,11.89,2.39,21.6-2.5,45.93-35.9,53.93-32.27Z"/><path class="uuid-98a0dcf3-c1ef-46b8-9991-eb1e5378dc5b" d="m841.56,2149.39c7.32,24.29-17.58,78.3-38.7,98.69-8.28,7.99-19.57,9.48-33.87,5.38,33.11,30.07,76.51,64.52,127.79,93.8h215.01c-45.31-25.94-107.01-57.74-141.58-77.67-45.8-26.4-97.55-83.09-128.65-120.2Z"/><path class="uuid-98a0dcf3-c1ef-46b8-9991-eb1e5378dc5b" d="m813.39,2114.24l-.26.16c.54.55,1.09,1.09,1.62,1.63-.88-1.16-1.36-1.79-1.36-1.79Z"/><path class="uuid-98a0dcf3-c1ef-46b8-9991-eb1e5378dc5b" d="m628.55,1958.6c-26.01-29.7-56.37-65.81-64.72-81.67-15.38-29.21-85.95-156.78-94.01-169.39-1.78-2.79-5.6-4.06-10.56-4.24-13.5-.5-35.42,7.03-47.6,13.72-3.56,1.95-6.28,3.84-7.72,5.43-8.18,9.04,42.1,120.89,76.84,186.44,23.04,43.48,50.33,86.72,79.74,121.15,5.18-16.31,33.52-65.2,68.03-71.45Z"/><path class="uuid-76221d50-6f7a-48d1-bdee-164fb5fb93f9" d="m591.9,2054.77c34.16-27.43,71.49-23.41,98.06-13.77,11.62-6.63,25.7-10.93,39.77-11.31-28.82-33.37-62.2-73.74-96.32-71.68-1.63.1-3.25.31-4.85.6-34.5,6.25-62.84,55.13-68.03,71.45-.41,1.3-.69,2.41-.8,3.25-.59,4.57,5.09,19.77,16.11,39.96,4.34-7.07,9.67-13.37,16.06-18.5Z"/><path class="uuid-76221d50-6f7a-48d1-bdee-164fb5fb93f9" d="m802.86,2248.08c21.12-20.39,46.02-74.39,38.7-98.69-.51-1.71-1.18-3.27-2.03-4.66-4.43-7.29-13.5-17.3-24.78-28.7-.53-.54-1.08-1.09-1.62-1.63-5.55-5.57-11.59-11.46-17.84-17.51-.46,15.9-7.17,30.4-17.7,41.15,8.73,26.25,8.32,53.44-8.93,75.61-9.03,11.6-18.47,20.42-28.12,26.92,10.54,6.11,20.02,10.46,28.45,12.88,14.31,4.1,25.59,2.62,33.87-5.38Z"/><path class="uuid-394b1f68-46f8-46ab-afcc-a8b0b6291a5b" d="m696.39,2043.51c29.3,12.35,67.12,52.21,81.2,94.54,10.52-10.76,17.24-25.25,17.7-41.15.42-14.52-4.38-30.22-16.27-45.31-12.82-16.27-31.04-22.38-49.28-21.9-14.08.37-28.16,4.68-39.77,11.31,2.22.81,4.37,1.65,6.44,2.51Z"/><path class="uuid-a060e095-8253-49a9-b014-78407b917f72" d="m768.66,2213.66c17.25-22.17,17.66-49.37,8.93-75.61-14.07-42.33-51.9-82.19-81.2-94.54-2.06-.87-4.22-1.71-6.44-2.51-26.57-9.64-63.9-13.66-98.06,13.77-6.39,5.13-11.72,11.43-16.06,18.5-20.8,33.89-18.4,86.01,4.28,117.99,23.8,33.56,96.72,92.18,160.41,49.33,9.65-6.5,19.1-15.32,28.12-26.92Z"/></svg>