<?xml version="1.0" encoding="utf-8"?>
<!-- Generator: Adobe Illustrator 27.7.0, SVG Export Plug-In . SVG Version: 6.00 Build 0)  -->
<svg version="1.1" id="Layer_1" xmlns="http://www.w3.org/2000/svg" xmlns:xlink="http://www.w3.org/1999/xlink" x="0px" y="0px"
	 viewBox="0 0 1853.8 1645.4" style="enable-background:new 0 0 1853.8 1645.4;" xml:space="preserve">
<style type="text/css">
	.st0{fill:#BBD1FC;}
	.st1{fill:#2D6BE1;}
	.st2{fill:#BE88BA;}
	.st3{fill:#FCD34D;}
	.st4{fill:#B45309;}
	.st5{fill:#FFFFFF;}
	.st6{fill:url(#SVGID_1_);}
	.st7{fill:#F35F5F;}
	.st8{fill:#9D7265;}
	.st9{fill:url(#SVGID_00000040551145014221536560000009250578215427461267_);}
	.st10{fill:url(#SVGID_00000023273758440313411140000007851447237740891810_);}
	.st11{fill:#154194;}
	.st12{fill:url(#SVGID_00000005237541332798523720000009891900631745648806_);}
	.st13{fill:url(#SVGID_00000104700639793069059950000008282347802398644641_);}
	.st14{fill:url(#SVGID_00000131356887632589528350000013491750252888615831_);}
	.st15{fill:url(#SVGID_00000052101609924126482770000012391318560679358855_);}
	.st16{fill:#262D38;}
	.st17{fill:#00A87A;}
	.st18{fill:url(#SVGID_00000142896022576247127270000006311837126661048994_);}
	.st19{fill:url(#SVGID_00000060002152251783504490000005537598122869851069_);}
	.st20{fill:url(#SVGID_00000168809143990903190820000000207240318689224101_);}
	.st21{fill:url(#SVGID_00000056398217646304736810000009829834080283863706_);}
</style>
<path class="st0" d="M1806.9,639.4c27.9,329.4-138.1,637.3-468.7,759.2c-330.5,121.8-796,128.4-1099.6-71.7
	c-70-46.2-132.4-107-167.9-182.8c-51.5-110-27.9-239.7,40.2-337.3c70.2-100.6,186.1-165,307.5-185c96-15.8,195.5-4.6,290.6-25.7
	c89.7-19.9,160-77.3,214.6-149.4c60.9-80.6,104.1-173.8,169.4-250.9c148.6-175.7,397.3-151.7,544.9,10.9
	c73.5,80.9,118.2,184.2,145,289.9C1794.9,544.3,1802.9,592.1,1806.9,639.4z"/>
<path class="st1" d="M1623.3,1207.2c-1.7-15.3-4.8-30.6-9.6-45.9c-4.8-15.2-11-29.6-18.4-43.1l22.2-41.8c7.9-14.8,4.8-33.1-7.6-44.5
	l-41.1-37.6c-12.4-11.4-30.9-12.9-45-3.7l-39.7,25.8c-28.4-12.6-59.3-19.6-91-20.2l-25-40.1c-8.9-14.3-26.3-20.7-42.3-15.6
	l-53.1,16.8c-16,5.1-26.6,20.3-25.7,37.1l2.5,47.2c-25.6,18.7-46.9,42.2-63,68.8l-47.3,1.6c-16.8,0.6-31.1,12.4-34.7,28.8
	l-12.1,54.4c-3.6,16.4,4.3,33.2,19.3,40.8l42.2,21.4c1.7,15.3,4.8,30.6,9.6,45.9c4.8,15.2,11,29.6,18.4,43.1l-22.2,41.8
	c-7.9,14.8-4.8,33.1,7.6,44.5l41.1,37.6c12.4,11.4,30.9,12.9,45,3.7l39.7-25.8c28.4,12.6,59.3,19.6,91,20.2l25,40.1
	c8.9,14.3,26.3,20.7,42.3,15.6l53.1-16.8c16-5.1,26.6-20.3,25.7-37.1l-2.5-47.2c25.6-18.7,46.9-42.2,63-68.8l47.3-1.6
	c16.8-0.6,31.1-12.4,34.7-28.8l12.1-54.4c3.6-16.4-4.3-33.2-19.3-40.8L1623.3,1207.2z M1418.5,1327.3
	c-52.4,16.5-108.3-12.6-124.9-65s12.6-108.3,65-124.9c52.4-16.5,108.3,12.6,124.9,65C1500,1254.8,1470.9,1310.7,1418.5,1327.3z"/>
<g>
	<rect x="982.1" y="104.7" class="st1" width="112" height="16.8"/>
	<rect x="982.1" y="134.5" class="st2" width="88.1" height="9.1"/>
	<rect x="982.1" y="147.9" class="st2" width="98.9" height="9.1"/>
	<rect x="982.1" y="161.4" class="st2" width="76.5" height="9.1"/>
	<rect x="982.1" y="174.8" class="st2" width="85.8" height="9.1"/>
	<rect x="982.1" y="216.6" class="st1" width="112" height="16.8"/>
	<rect x="982.1" y="246.5" class="st2" width="88.1" height="9.1"/>
	<rect x="982.1" y="259.9" class="st2" width="98.9" height="9.1"/>
	<rect x="982.1" y="273.3" class="st2" width="76.5" height="9.1"/>
	<rect x="982.1" y="286.8" class="st2" width="85.8" height="9.1"/>
	<rect x="556" y="232.2" class="st1" width="112" height="16.8"/>
	<rect x="556" y="262" class="st2" width="88.1" height="9.1"/>
	<rect x="556" y="275.4" class="st2" width="98.9" height="9.1"/>
	<rect x="556" y="288.9" class="st2" width="76.5" height="9.1"/>
	<rect x="556" y="302.3" class="st2" width="85.8" height="9.1"/>
	<rect x="797.3" y="215.8" class="st1" width="112" height="16.8"/>
	<rect x="797.3" y="245.7" class="st0" width="88.1" height="9.1"/>
	<rect x="797.3" y="259.1" class="st0" width="98.9" height="9.1"/>
	<rect x="797.3" y="272.6" class="st0" width="76.5" height="9.1"/>
	<rect x="797.3" y="286" class="st0" width="85.8" height="9.1"/>
	<rect x="797.3" y="327.8" class="st1" width="112" height="16.8"/>
	<rect x="797.3" y="357.6" class="st0" width="88.1" height="9.1"/>
	<rect x="797.3" y="371.1" class="st0" width="98.9" height="9.1"/>
	<rect x="797.3" y="384.5" class="st0" width="76.5" height="9.1"/>
	<rect x="797.3" y="398" class="st0" width="85.8" height="9.1"/>
</g>
<g>
	<path class="st3" d="M1576.9,979.2h-52.8c-0.2,0-12.1,136.8-13.4,162c-4.6,86.7,16,157.4,19.6,171.3c0,0.1,0,0.2,0.1,0.2
		c1,4,1.8,8.1,2.2,12.2c0.4,3.2,1.1,6.7,2.3,10.7c6.8,22.2,14.5,114.2,16.8,147.8c2.3,33.5,2.2,82.2,2.2,82.2h30.8
		c0,0,6-90.8,10.6-132.5c2.8-25.5,0.7-72.8-10.5-103.5c-3.3-9-4.7-18.7-4-28.5c0.3-3.8,0.4-7.9,0.3-12.3
		c-0.2-31.1,7.6-86.3,10.9-104.7c1.9-10.7,9.7-52.6,7-87.3c3.1-5.4,5.4-12,7-19.9C1614.6,1034.8,1587.2,991.1,1576.9,979.2z"/>
	<path class="st3" d="M1665.3,1433.1c1.3-24.8-4.2-69.9-18.2-100.7c-4.9-10.8-7.7-22.6-8.1-34.9c-0.1-2.7-0.2-5.6-0.5-8.7
		c-2.6-31.1,2.3-86.3,4.7-104.7c1.3-9.7,6.2-45,2.9-77.4c-0.9-8.9,0.2-18.2,3.3-27c0.3-0.9,0.6-1.9,1-2.8
		c13.6-42.2-13.7-85.9-24.4-97.8h-69.3c-0.3,0-3.8,41-5.1,56c-0.8,9.5-4.6,82.5-4.3,106c1.1,86.7,29.8,157.4,34.9,171.3
		c0.1,0.2,0.1,0.3,0.2,0.5c1.3,3.6,2.5,7.2,3.2,11c0.6,3.4,1.8,7.3,3.6,11.6c9.4,22.2,24.9,114.2,30,147.8
		c5.1,33.5,11.9,82.2,11.9,82.2h30.7C1661.9,1565.6,1663.1,1474.8,1665.3,1433.1z"/>
	<path class="st3" d="M1551.3,1582.2c17.3-4.5,29.6-13.3,34.1-17c-0.5-1.3-0.9-2.1-0.9-2.1l-30.9-3.5c0,0-14.5,11.3-28,19.7
		C1530.1,1582.6,1538.4,1585.6,1551.3,1582.2z"/>
	<path class="st4" d="M1588.7,1577.7c-0.8-5.5-2.4-9.9-3.4-12.4c-4.5,3.6-16.8,12.5-34.1,17c-12.9,3.3-21.2,0.3-25.8-2.8
		c-5.3,3.3-14.8,10.3-18.8,11.8c-14.4,5.5-4.3,11.6,0.7,12.1c9.3,0.9,17.8,1.4,31-0.4c4-0.5,20.9-10.4,27.5-11.6c6.6-1.1,12,6,12,6
		c2.5-0.5,6-1.2,7.9-1.6c0,0,0.6-5.4,2.6-9C1589.7,1584.1,1589.3,1581.7,1588.7,1577.7z"/>
	<path class="st3" d="M1627.5,1582.2c17.3-4.5,29.6-13.3,34.1-17c-0.5-1.3-0.9-2.1-0.9-2.1l-30.9-3.5c0,0-14.5,11.3-28,19.7
		C1606.3,1582.6,1614.6,1585.6,1627.5,1582.2z"/>
	<path class="st4" d="M1664.9,1577.7c-0.8-5.5-2.4-9.9-3.4-12.4c-4.5,3.6-16.8,12.5-34.1,17c-12.9,3.3-21.2,0.3-25.8-2.8
		c-5.3,3.3-14.8,10.3-18.8,11.8c-14.4,5.5-4.3,11.6,0.7,12.1c9.3,0.9,17.8,1.4,31-0.4c4-0.5,20.9-10.4,27.5-11.6c6.6-1.1,12,6,12,6
		c2.5-0.5,6-1.2,7.9-1.6c0,0,0.6-5.4,2.6-9C1665.9,1584.1,1665.5,1581.7,1664.9,1577.7z"/>
	<path class="st5" d="M1575.2,742.1c-18.3-23.2-56.9,25.3-140.5,37.9c-4.3,0.7-8.8,1.2-13.4,1.7c-18-14.5-36.4-32-52.2-48.2l0,0
		c-22.1-22.6-39.3-42.8-43.6-49.3c-8.8-13-18.6-10.7-13.8,1.7c2.5,6.4,17.2,31.7,40.6,61.8c14.1,18.1,31.3,37.9,50.9,56.4
		c2.6,2.5,5.8,4.4,9.3,5.6l0,0c2.8,0.9,5.7,1.4,8.6,1.3c11.5-0.2,23.2-0.8,34.7-2C1544.4,799.5,1589.4,760.1,1575.2,742.1z"/>
	
		<linearGradient id="SVGID_1_" gradientUnits="userSpaceOnUse" x1="-7921.1494" y1="-3979.7749" x2="-7573.356" y2="-4278.9214" gradientTransform="matrix(-0.1845 0.9828 -0.9828 -0.1845 -4168.8525 7538.9375)">
		<stop  offset="0" style="stop-color:#FFCDCD"/>
		<stop  offset="1" style="stop-color:#FF8686"/>
	</linearGradient>
	<path class="st6" d="M1328.2,672.2c-3.6-5.2-6.1-12.4-9.3-10.9c-1.5,0.8,0.7,7.1,2.4,13c-2.9-3.9-5.9-7.2-8.1-8.9
		c-6.7-5.2-6.2-10.9-7.2-12.9c-1-2.1-2-10.3-4.6-9.3s-8.4,26.3-4.3,36.6s26.7,28.5,26.7,28.5l8.3-7.7
		C1338.4,695.9,1331.8,677.3,1328.2,672.2z"/>
	<ellipse class="st7" cx="1653.3" cy="761.6" rx="33.5" ry="33.5"/>
	<ellipse class="st7" cx="1597.7" cy="717.8" rx="72.4" ry="67.5"/>
	
		<ellipse transform="matrix(0.9008 -0.4342 0.4342 0.9008 -139.5365 742.7919)" class="st7" cx="1556.1" cy="676.8" rx="23.8" ry="23.8"/>
	<path class="st8" d="M1638.6,955.3c0,0,13,54.6,19.4,111.1c6.2,55.1-3.3,169-3.3,169s-27.1,8.3-88.3,4.8
		c-67.7-3.9-69.2-16.3-69.2-16.3c0-0.2,0-92,3.6-141c4.3-59.2,20.5-125.5,20.8-125.2c0.2,0.1,1-2.3,1.3-2.3
		C1522.9,955.3,1638.6,955.3,1638.6,955.3z"/>
	<path class="st2" d="M1509.2,807.7c1.1-3.2,2.1-6.4,3.2-9.6c3.2-37.9,21-68.1,70-66.7c36.1,1,74.7,32.6,68.7,69.7
		c-12.6,77.6,8.4,254.1,8.4,254.1h-146.2c0,0,11.6-152,3.5-195.9c-2-1.2-4.4-3.1-6.4-5.2c-9.1-9.7-11.6-20-11.6-20
		C1500.5,826.8,1505.9,815.3,1509.2,807.7z"/>
	<g>
		
			<linearGradient id="SVGID_00000104697017582795320980000015875208211850091439_" gradientUnits="userSpaceOnUse" x1="5834.4351" y1="88.5789" x2="6218.3184" y2="-268.0616" gradientTransform="matrix(-1 0 -3.300000e-02 1 7622.9849 1078)">
			<stop  offset="0" style="stop-color:#FFFFFF"/>
			<stop  offset="1" style="stop-color:#BBD1FC"/>
		</linearGradient>
		<path style="fill:url(#SVGID_00000104697017582795320980000015875208211850091439_);" d="M1578.3,777.8
			c14.5-20.6,30.1-34.1,36.3-38.1c24.2,12,42.7,35.5,38.3,61.7c-5.2,31.5-5.4,104.9,6.3,181.3c16.2,106,6.2,210.8,6.2,210.8
			l-131.8-0.2c0.3-49.1,3.9-217.1,6.3-302.9c0.4-16.1,1.4-29.5,1.7-38.5C1542,838.8,1553.7,812.8,1578.3,777.8z"/>
		
			<linearGradient id="SVGID_00000147915081651709579390000017089186815860653478_" gradientUnits="userSpaceOnUse" x1="5952.8579" y1="29.073" x2="6351.4087" y2="-341.1938" gradientTransform="matrix(-1 0 -3.300000e-02 1 7622.9849 1078)">
			<stop  offset="0" style="stop-color:#FFFFFF"/>
			<stop  offset="1" style="stop-color:#BBD1FC"/>
		</linearGradient>
		<path style="fill:url(#SVGID_00000147915081651709579390000017089186815860653478_);" d="M1507.3,806.8c1.1-3.2,2.2-6.5,3.3-9.7
			c2.4-27.7,12.7-51.4,37.4-61.8c-13.8,40.1-5.6,102.4-6,115.4c-1.7,57.1-6.9,284.1-7.2,342.6h-42.4c0,0,6.7-125.8,20.4-226.9
			c6.8-49.8,5-92.7,2.2-107.6c-2-1.2-4.5-3.1-6.6-5.2c-9.4-9.7-12-20.2-12-20.2C1498.3,826.2,1503.9,814.6,1507.3,806.8z"/>
	</g>
	<g>
		<path class="st11" d="M1530.9,806.6l-8.4-4.1c0,0,3.2-23.4,6.7-37c1.7-6.5,4.7-15.9,7.4-23.8c3.4-2.5,7.2-4.6,11.4-6.4
			c-12.9,37.6-6.3,94.8-5.8,112.6l-18.6-36.5L1530.9,806.6z"/>
	</g>
	<path class="st11" d="M1573.9,808.3l6.5,7.8l-38.6,32.4c2-13.8,13.8-38.5,36.4-70.7c14.5-20.6,30.1-34.1,36.3-38.1
		c2.8,1.4,5.5,2.9,8.1,4.6l-31.4,62L1573.9,808.3z"/>
	<path class="st3" d="M1604.3,684.5c0,0-3.7,14.4-1,29.7c2.4,14,6.7,23.7,6.7,23.7s-22.9,15.4-42.3,11.1
		c-16.4-3.7-13.6-13.7-13.6-13.7s9.4-9.4,14.8-24.3c5.4-14.9,6.4-27.7,6.4-27.7L1604.3,684.5z"/>
	<path class="st3" d="M1593.4,619c29,4.3,38,36.8,25.2,54c-11.8,15.9-20.9,8-27.2,20.6c-4.9,9.8-24.4,22.1-34.6,21.2
		c-10.2-1-16.8-24.3-11.1-55.7C1551.5,627.7,1577.4,616.6,1593.4,619z"/>
	<path class="st7" d="M1625.9,641.5c-0.3-0.8-0.6-1.5-0.8-2.3c-8-20-24.8-26.1-41.5-26c-16.3,0-29.2,12.5-32.9,19.9
		c-1.5,2.9-4.7,4-7.4,5.5c-6,3.2-10.3,12.3-6.2,18.5c1.8,2.8,5,4.7,8.2,5.6c0,0,1.5-8.5,2.8-12.3c2.4-6.6,9.6-7.7,9.6-7.7
		s0,0-0.1-0.1c0.1,0,0.1,0,0.2,0c-0.1,0.1-0.1,0.1-0.1,0.1s-0.5,9.6,19.9,26.1c9.4,7.6,18.1,8.8,23.9,7.3c0.8,1.8-1.3,7.8-0.3,12
		c0.5,2.1,1.7,10.2,1.7,10.2s9.5-7.5,12.6-10.7c0.8-0.6,1.5-1.4,2.2-2.1c2.1-2.3,3.9-5,5.5-7.4c0.6-1.2,1.1-2.4,1.6-3.6
		c1.9-4.9,3-10.2,3.5-14.8c0.1-1.2,0.1-2.5,0-3.7C1628.1,651.1,1627.3,646.1,1625.9,641.5z"/>
	
		<linearGradient id="SVGID_00000101792143760486573890000002732714301115525785_" gradientUnits="userSpaceOnUse" x1="20119.4727" y1="-3421.6016" x2="19801.1699" y2="-2857.4666" gradientTransform="matrix(-0.9893 0.1457 0.1457 0.9893 21932.5176 1047.9655)">
		<stop  offset="0" style="stop-color:#FFCDCD"/>
		<stop  offset="1" style="stop-color:#FF8686"/>
	</linearGradient>
	<path style="fill:url(#SVGID_00000101792143760486573890000002732714301115525785_);" d="M1595.8,675c0,0,10.9-4.8,8.1,4.7
		c-2.7,9.5-12.8,8.5-12.8,8.5L1595.8,675z"/>
	
		<linearGradient id="SVGID_00000068649893338747176660000001927355584074959802_" gradientUnits="userSpaceOnUse" x1="5869.8672" y1="-3069.687" x2="5905.5532" y2="-3069.687" gradientTransform="matrix(-0.9613 0.2755 0.2755 0.9613 8063.0356 2000.7227)">
		<stop  offset="0" style="stop-color:#020057"/>
		<stop  offset="1" style="stop-color:#4011D2"/>
	</linearGradient>
	<path style="fill:url(#SVGID_00000068649893338747176660000001927355584074959802_);" d="M1567.5,665.3c-3.4-0.1-6.4,1.5-7.8,3.8
		c-2.2-0.9-4.8-0.9-6.9-0.1c-1-2.4-3.6-4.1-6.7-4.2c-3.9-0.1-7.2,2.6-7.3,6s2.8,6.4,6.7,6.7c4,0.3,7.6-2.3,7.7-5.9
		c0-0.6,0-1.1-0.2-1.6c1.9-0.8,4.2-0.8,6.2,0.1c-0.2,0.6-0.4,1.2-0.4,1.9c-0.2,3.7,3.3,6.9,7.9,7.3c4.8,0.4,8.9-2.5,9.1-6.4
		C1576.2,668.7,1572.3,665.4,1567.5,665.3z M1545.6,676.5c-3.5-0.3-6.1-2.8-6-5.8c0.2-2.9,3-5.3,6.5-5.2c3.6,0.1,6.4,2.7,6.3,5.8
		C1552.3,674.5,1549.2,676.8,1545.6,676.5z M1566.9,678.1c-4.1-0.3-7.2-3.1-7-6.3s3.5-5.7,7.6-5.6c4.2,0.1,7.6,3,7.5,6.3
		C1574.8,675.9,1571.1,678.4,1566.9,678.1z"/>
	<circle class="st7" cx="1610.5" cy="685.8" r="28.7"/>
	<path class="st11" d="M1350.1,729.8c2.7-13.4,4.1-27.2,4.1-41.3s-1.4-28-4.1-41.3l29.9-29.4c10.6-10.4,12.9-26.7,5.4-39.7
		l-24.7-42.8c-7.5-12.9-22.7-19.1-37-15.1l-40.5,11.3c-20.6-18.2-44.9-32.4-71.6-41.4l-10.5-40.6c-3.7-14.4-16.7-24.5-31.6-24.5
		h-49.4c-14.9,0-27.9,10.1-31.6,24.5l-10.5,40.6c-26.7,9-50.9,23.2-71.6,41.4l-40.5-11.3c-14.4-4-29.6,2.2-37,15.1l-24.7,42.8
		c-7.5,12.9-5.2,29.2,5.4,39.7l29.9,29.4c-2.7,13.4-4.1,27.2-4.1,41.3s1.4,28,4.1,41.3l-29.9,29.4c-10.6,10.4-12.9,26.7-5.4,39.7
		l24.7,42.8c7.5,12.9,22.7,19.1,37,15.1l40.5-11.3c20.6,18.2,44.9,32.4,71.6,41.4l10.5,40.6c3.7,14.4,16.7,24.5,31.6,24.5h49.4
		c14.9,0,27.9-10.1,31.6-24.5l10.5-40.6c26.7-9,50.9-23.2,71.6-41.4l40.5,11.3c14.4,4,29.6-2.2,37-15.1l24.7-42.8
		c7.5-12.9,5.2-29.2-5.4-39.7L1350.1,729.8z M1144.9,776.7c-48.7,0-88.3-39.5-88.3-88.3c0-48.7,39.5-88.3,88.3-88.3
		c48.7,0,88.3,39.5,88.3,88.3C1233.1,737.2,1193.6,776.7,1144.9,776.7z"/>
	<path class="st5" d="M1634.4,760c-27-12.1-38.7,48.8-106.9,98.8c-3.5,2.6-7.2,5.2-11.1,7.7c-22.7-4.5-47.1-11.5-68.6-18.5l0,0
		c-30.1-9.8-54.6-19.7-61.5-23.4c-13.8-7.5-21.4-0.9-11.4,7.9c5.2,4.5,29.9,20.2,64.6,36c20.8,9.5,45.3,19.1,71.3,26.4
		c3.5,1,7.2,1.2,10.8,0.6l0,0c2.9-0.5,5.7-1.4,8.3-2.8c10.2-5.5,20.2-11.4,29.8-17.9C1633.8,825.2,1655.3,769.4,1634.4,760z"/>
	<path class="st3" d="M1383.1,812.6c-5.6-2.9-11.2-8.1-13.2-5.3c-1,1.4,3.9,6,8.2,10.4c-4.4-2.1-8.6-3.6-11.3-4.1
		c-8.3-1.5-10.5-6.8-12.4-8.1c-1.9-1.4-6.6-8.2-8.4-6.1c-1.8,2.1,4.8,27.2,13.2,34.4c8.4,7.3,36.9,12.8,36.9,12.8l3.8-10.7
		C1403.2,828.9,1388.7,815.5,1383.1,812.6z"/>
</g>
<path class="st2" d="M1024.9,1251.1c4.2-21.1,6.5-42.9,6.5-65.2c0-22.3-2.2-44.1-6.5-65.2l47.2-46.3c16.8-16.5,20.3-42.2,8.5-62.5
	l-39-67.5c-11.7-20.4-35.8-30.2-58.4-23.9l-63.8,17.8c-32.6-28.7-70.8-51.1-112.9-65.3L790,809c-5.9-22.8-26.4-38.7-49.9-38.7h-77.9
	c-23.5,0-44,15.9-49.9,38.7l-16.5,64c-42.1,14.2-80.3,36.6-112.9,65.3l-63.8-17.8c-22.6-6.3-46.7,3.5-58.4,23.9l-39,67.5
	c-11.7,20.4-8.2,46.1,8.5,62.5l47.2,46.3c-4.2,21.1-6.5,42.9-6.5,65.2s2.2,44.1,6.5,65.2l-47.2,46.3c-16.8,16.5-20.3,42.2-8.5,62.5
	l39,67.5c11.7,20.4,35.8,30.2,58.4,23.9l63.8-17.8c32.6,28.7,70.8,51.1,112.9,65.3l16.5,64c5.9,22.8,26.4,38.7,49.9,38.7h77.9
	c23.5,0,44-15.9,49.9-38.7l16.5-64c42.1-14.1,80.3-36.6,112.9-65.3l63.8,17.8c22.6,6.3,46.7-3.5,58.4-23.9l39-67.5
	c11.7-20.4,8.2-46.1-8.5-62.5L1024.9,1251.1z M701.3,1325.1c-76.9,0-139.2-62.3-139.2-139.2s62.3-139.2,139.2-139.2
	s139.2,62.3,139.2,139.2S778.1,1325.1,701.3,1325.1z"/>
<g>
	<g>
		
			<linearGradient id="SVGID_00000036962454908808129460000011231231316055358623_" gradientUnits="userSpaceOnUse" x1="-2029.8751" y1="8206.6016" x2="-1682.4434" y2="6837.6646" gradientTransform="matrix(-5.440000e-02 0.994 1.0051 1.730000e-02 -7429.375 2471.2742)">
			<stop  offset="0" style="stop-color:#FFCDCD"/>
			<stop  offset="1" style="stop-color:#FF8686"/>
		</linearGradient>
		<path style="fill:url(#SVGID_00000036962454908808129460000011231231316055358623_);" d="M570,752.5
			c-99.2,18.7-169.3-20.3-147.8-43.7c21-26.1,93.1,8.9,156.3-3c1.2-0.2,2.4-0.4,3.7-0.7c40.9-29.3,86.4-77.6,106.9-105.9
			c6.5-8.7,11-15.3,12.7-18.7c7.8-15.4,18.3-12.5,14.5,1.9c-1,3.7-4.9,13.5-11.5,27c-17.1,35.5-55.7,96.6-111.6,139.2
			C593,748.5,576.2,751.3,570,752.5z"/>
		<path class="st8" d="M691.4,582c3.9-7,6.8-16.2,10.2-15c1.7,0.6-0.9,8.7-2.8,16.1c3.2-5.3,6.5-9.8,9-12.4c7.4-7.6,7-14.3,8.1-17
			c1.2-2.7,2.5-12.9,5.4-12.1c2.8,0.7,8.4,30.1,3.8,43.2c-4.7,13.1-29,39.3-28.9,39.4c-3-2.5-6-4.9-9-7.4
			C680.3,612.7,687.3,589,691.4,582z"/>
		
			<linearGradient id="SVGID_00000149339485828743631050000006811306308388016550_" gradientUnits="userSpaceOnUse" x1="4875.6782" y1="9314.9668" x2="4949.1147" y2="9279.3408" gradientTransform="matrix(0.5778 0.7926 0.8242 -0.6001 -9810.7441 2306.5383)">
			<stop  offset="0" style="stop-color:#E7EEFE"/>
			<stop  offset="1" style="stop-color:#AAC5FA"/>
		</linearGradient>
		<path style="fill:url(#SVGID_00000149339485828743631050000006811306308388016550_);" d="M684.5,605.3c-2.5,3.1-5,6.2-7.5,9.3
			c5.7,4.9,11.4,9.8,17.2,14.7c2.6-4,5.3-7.9,7.9-11.9C696.2,613.4,690.3,609.4,684.5,605.3z"/>
		<path class="st5" d="M570.2,756c-99.3,18.6-169.5-23.8-148-47.2c21-26,92.8,5.9,155.9-6c1-0.2,2-0.4,3.1-0.6
			c34.1-24.6,71.3-62.2,94.5-90.4c6.5,3.4,19.5,10.9,25.1,15.8c-19.5,35.2-56.8,85.6-103.6,122c-1.7,1.3-3.6,2.2-5.6,2.5
			C586.2,753.1,574.9,755.1,570.2,756z"/>
		<path class="st16" d="M455.2,1541.6c6.6-0.2,1,9,17.4,21.1c16.3,12,29.7,16.2,29.7,16.2s16.4,3.1,18.4,8.5
			c1.9,5.4-0.5,17.1-0.5,17.1s-18.8,10.3-53.5,1.5c-34.8-8.8-27.7-4.6-40-5.1s-15.4-4.9-15.4-4.9s0.3-24,3.4-31.2
			c2.1-4.9-2.1-15.7-1.8-22.3c0.1-2.4,2.8-4.2,5.5-3.5c2.6,0.7,11.2,1.2,16.2,1.8C446.9,1541.9,446.9,1541.9,455.2,1541.6z"/>
		<path class="st16" d="M226.1,1513.8c5.9,3.1-3.5,8.1,4.9,26.5s18,28.5,18,28.5s12.8,10.8,11.9,16.4c-0.9,5.5-8.7,14.3-8.7,14.3
			s-21.4-0.7-47.3-25.4c-26.1-24.7-21.9-17.5-32.4-24.1c-10.5-6.5-11.1-11.7-11.1-11.7s11.9-20.3,18.2-24.9
			c4.2-3.1,8.1-12.3,11.5-17.9c1.3-2,4.5-2.2,6.5-0.3c1.9,1.9,7,4.5,11.1,7.4C218.7,1510,218.7,1510,226.1,1513.8z"/>
		<path class="st17" d="M411.9,1559.2c2.4-36.6,11.1-139.1,12-185.2c1.4-55.5,31.4-111.8,33.4-115.9c-1.1-9.2-16.5-90.5-23.2-149.7
			c-6.4-64.1-16-204-16.4-203.9c31.7-0.8,63.4-1.7,95.2-2.5c0.3-0.2,30.9,142.3,23,243.3c-2,27.1-3.4,54.3-7.1,81.3
			c-1.4,19.9-45.2,246.8-64.7,323.2C448.4,1554,428,1557.1,411.9,1559.2z"/>
		<path class="st17" d="M184,1505.5c9.8-16,66-110.3,90.7-151.4c23-37.5,59.8-71.8,73.6-80.9c5.6-23.3,10.8-71.1,8.9-123.5
			c-1.2-37.2,2.8-99.5,7.2-136.4c4.3-34.1,16.4-89.5,33-104c33.6,1.8,67.2,3.7,100.8,5.5c0.4,0-0.2,31.2-2.4,50.6
			c-0.6,5.9-2.9,27.3-2.9,27.3c-0.5,3.3-1.2,6.7-2,10.2c-5.7,29.1-18.4,114.7-35.5,180.4c-19.8,76.7-43.6,127.7-43.5,127.7
			c-1.5,1.9-143.9,177.2-181.1,218C215.3,1521.1,199.7,1513.3,184,1505.5z"/>
		<g>
			
				<linearGradient id="SVGID_00000159445111464466903150000006106758824653043872_" gradientUnits="userSpaceOnUse" x1="2894.4482" y1="280.1187" x2="3157.4766" y2="-350.6827" gradientTransform="matrix(1.164 -0.1228 -0.1249 1.0142 -3073.981 1164.3969)">
				<stop  offset="0" style="stop-color:#FFCDCD"/>
				<stop  offset="1" style="stop-color:#FF8686"/>
			</linearGradient>
			<path style="fill:url(#SVGID_00000159445111464466903150000006106758824653043872_);" d="M390.1,689.1
				c-24.9,7.3-48.3,27.6-49.6,50.6c-0.4,3-0.6,6.2-0.7,9.6c0,13.6,3.3,30.6,11.2,52.7c23.2,65.1,30,107.9,30,107.9
				c38.7-3,77.4-6,116.1-9.1c0,0-0.3-9.6,0.4-13.7c4.2-26.8,6.6-54.3,9.8-81.5c3.6-30,3.3-63.3-11.9-88.9
				c-18.6-31.3-57.6-38.9-92.4-31C394.7,687,390.1,689.1,390.1,689.1z"/>
		</g>
		<g>
			<path class="st1" d="M390.1,689.1c-24.9,7.3-48.3,27.6-49.6,50.6c-0.4,3-0.6,6.2-0.7,9.6c0,13.6,3.3,30.6,11.2,52.7
				c23.2,65.1,30,107.9,30,107.9c38.7-3,77.4-6,116.1-9.1c0,0-0.3-9.6,0.4-13.7c4.2-26.8,6.6-54.3,9.8-81.5
				c3.6-30,3.3-63.3-11.9-88.9c-18.6-31.3-57.6-38.9-92.4-31C394.7,687,390.1,689.1,390.1,689.1z"/>
		</g>
		
			<linearGradient id="SVGID_00000037661779070628944800000004468094709900806792_" gradientUnits="userSpaceOnUse" x1="-3825.324" y1="393.1402" x2="-3772.0518" y2="-1036.3007" gradientTransform="matrix(-0.9999 2.300000e-03 -2.300000e-03 0.9484 -3293.834 1111.2952)">
			<stop  offset="0" style="stop-color:#FFFFFF"/>
			<stop  offset="1" style="stop-color:#BBD1FC"/>
		</linearGradient>
		<path style="fill:url(#SVGID_00000037661779070628944800000004468094709900806792_);" d="M500.1,1217.1
			c3.1-97.5-14.3-373.7-33.4-450.2c0.6-9.5,1.4-44.2,0-76c0-0.5,0.1-0.8,0.2-1.1c0.1-0.2,0.2-0.3,0.3-0.4c0.2-0.1,0.4-0.2,0.6-0.2
			c0.1,0,0.6,0.1,0.4,0.1c-1,0.1,22.4,2.5,29.2,5.1c12.8,4.9,23.4,48,26,67.2c25.5,187.8,35.4,393.1,31.6,451.1
			C530.9,1216.2,525.5,1215.9,500.1,1217.1z"/>
		
			<linearGradient id="SVGID_00000168100262512987592530000005550284392082397329_" gradientUnits="userSpaceOnUse" x1="-3833.1672" y1="311.4734" x2="-3322.2129" y2="-1254.1709" gradientTransform="matrix(-0.9999 2.300000e-03 -2.300000e-03 0.9484 -3293.834 1111.2952)">
			<stop  offset="0" style="stop-color:#FFFFFF"/>
			<stop  offset="1" style="stop-color:#BBD1FC"/>
		</linearGradient>
		<path style="fill:url(#SVGID_00000168100262512987592530000005550284392082397329_);" d="M329.1,1210.4c2.5-15.6,4.5-30.9,6-45.4
			c11-103.9,15.3-353.2,7.1-401.4c-0.8-3.4-1.8-8-2.2-11c-0.2-1.3-7.3-38.5,47.2-64c0.1-0.1,0.2-0.1,0.4-0.1c0.2,0,0.4,0,0.5,0.1
			c9.8,5,20.3,12.5,31.1,22.4c20.6,18.8,41.5,45.7,47.6,53.8c19.1,76.5,38.4,354.7,35.3,452.2c-2.3,0.1-17,0.3-19.3,0.4
			C433.9,1219.4,374.2,1216.7,329.1,1210.4z"/>
		<path class="st11" d="M467,689.6c0.1-0.2,0.2-0.3,0.3-0.4c0.2-0.1,0.4-0.2,0.6-0.2c0.1,0,0.3,0,0.4,0.1c5.7,2.4,10.8,5.2,15.5,8.6
			c-0.7,3.2-1.5,6.3-2.2,9.5c-2.4,0-4.9-0.1-7.3-0.1c3.4,1.8,6.8,3.6,10.3,5.5c-6,18.7-11.6,33.7-17.8,52.2
			c-0.5-34.9-0.7-39.8-0.1-74C466.8,690.2,466.8,689.9,467,689.6z"/>
		<path class="st8" d="M402.1,670.3c2.8-7.9,1.1-23.3,0.2-26.7c-2-8.3-6.5-25-7.7-24.6c0,0,21.3-6.2,35.6,6c0.9,0.8,1.7,1.5,2.6,2.3
			c0.8,0.8,1.6,1.5,2.4,2.2c5.7,5.3,13.9,15.4,13.9,15.4s-2.2,5.1-0.5,16.5c1.4,8.9,10.9,26.8,10.8,26.8c0,0-0.1,7-7.4,9.9
			c-2.2,1.3-5.3,2.2-9.4,2.5c-0.1,0-0.2,0-0.3,0.1c-18.5,3.3-39-6-42.1-7.5s-6.5-3.5-6.5-3.5C393.7,689.6,399.3,678.2,402.1,670.3z"
			/>
		<path class="st8" d="M413,633.1c8.9-1,22.5,18.7,46.6,9.5c12.3-4.7,11.3-21.2,8.3-33.9c-2.8-12.3-15.8-51.4-43.5-52.2
			c-29.5-0.8-49.4,15.9-50.2,37.7C373.4,616,390.7,635.7,413,633.1z"/>
		
			<linearGradient id="SVGID_00000065754777547980851780000002392622350243774341_" gradientUnits="userSpaceOnUse" x1="-4333.4458" y1="-3762.6667" x2="-4094.2761" y2="-4705.0317" gradientTransform="matrix(-0.9114 -0.4114 -0.4114 0.9114 -5231.542 2846.7737)">
			<stop  offset="0" style="stop-color:#FFCDCD"/>
			<stop  offset="1" style="stop-color:#FF8686"/>
		</linearGradient>
		<path style="fill:url(#SVGID_00000065754777547980851780000002392622350243774341_);" d="M287.5,1046c-0.5-3.8-0.5-11.8,0.2-22.8
			c1.7-39.3,14.3-117.9,34.2-169.3c24.5-66.2,96.8-121.1,83.1-154.3c-11.6-32.5-84.8,20.6-121.7,124.6
			c-27.3,76.5-23.1,158.5-16.4,200.9c2.3,14.8,4.7,25,6,28.6C278.1,1067.3,289.7,1063.1,287.5,1046z"/>
		<path class="st8" d="M296.2,1038.3c0.7,8,3.6,17.3-0.3,18.4c-1.9,0.6-4.5-7.5-7.3-14.6c0.3,6.3,0,11.9-0.7,15.5
			c-2.2,10.7,2.2,15.8,2.8,18.7c0.5,2.9,5.4,11.9,2.3,13s-26-18.9-29.9-32.1c-3.6-13.3,2.4-49.1,2.3-49.2c4.3,0,8.6,0,13,0.1
			C287.3,1006.9,295.6,1030.2,296.2,1038.3z"/>
		<path class="st11" d="M288.1,1015.5c0.4-4.1,0.7-8.1,1.1-12.2c-8.4-0.2-16.8-0.5-25.1-0.7c0.1,4.8,0.1,9.6,0.2,14.3
			C272.1,1016.4,280.1,1016,288.1,1015.5z"/>
		<path class="st5" d="M292.1,1004.8c-8.1,1.4-24.8,3.8-33.1,3.5c-4.6-45.2-0.3-118.4,23.2-184.3c36.9-104,111.3-158,122.9-125.6
			c13.8,33.2-51.3,89.8-80.2,156.9C306.4,898.7,296.3,962.6,292.1,1004.8z"/>
		<path class="st2" d="M457,680.3c-3.4,6.9-6.9,12.9-10.4,19.8c4.1,4.1,8.3,9,12.4,13.1c2.8-7.4,5.6-14.9,8.4-22.4
			C463.9,687.3,460.5,683.8,457,680.3z"/>
		<path class="st2" d="M394.1,680.3c17.5,6.7,35,12.7,52.5,19.7c-2.5,5.6-5,12-7.6,17.6c-17.6-8.9-35.2-17.5-52.9-25.9
			C388.8,687.9,391.5,684.2,394.1,680.3z"/>
		<path class="st11" d="M402.2,706.7c-3.4-0.1-6.8-0.1-10.3-0.2c-6.4-3.7-12.7-7.5-19.1-11.2c4.2-2.5,8.6-4.6,12.9-6.2
			c0.6-0.2,1.2-0.4,1.9-0.6c0.2,0,0.4,0,0.5,0.1c9.8,5.3,21.3,12.1,32.2,22.5c19.9,19,40.4,44.2,46.4,53.7
			c-24.8-19-49.5-33.4-74.4-51.9C395.6,710.9,398.9,708.8,402.2,706.7z"/>
		<path class="st16" d="M382.4,559.9c1.8-1.1,3.9-1.8,6-2.5s4.1-1.4,5.9-2.4c2.3-0.9,4.4-1.8,6.2-2.5c1.7-0.7,3-1.3,3.6-1.7
			c4.7-3.1,7.4-6.4,9.4-7.8c8.6-6.2,14.2,0.8,14.2,0.8s4.9-1.9,9.5,0.2c5.8,2.6,11.1,10.1,5.9,20c0,0.1-6.5,5.5-12.7,7.7h-0.1
			c-8.5,3.6-14.1,3-22.2,9.3c-9.1,7,8.3,32.3,5.5,34.8c-2.7,2.4-7.6,2.7-10.2,2.6c-2.6-0.2-5.6,6.4,0,10s-1,15.3-1,15.3
			s-14-14.1-22.9-25.2c-1.5-1.9-2.7-3.7-3.7-5.5c-9.2-14.7-13.1-36.6,1.4-49.3C378.7,562.1,380.5,560.8,382.4,559.9z"/>
		<path class="st8" d="M408.6,619.7c-1.9-3.2-5.6-5.1-9.3-4.4c-3.1,0.6-5.4,2.6-2.4,8.4c6,11.5,18.6,7.7,18.6,7.7
			C413.2,627.5,410.9,623.6,408.6,619.7z"/>
		<g>
			<path class="st11" d="M565.3,152.1c-62.4,21.9-95.3,90.2-73.4,152.7c20.8,59.3,83.5,91.9,143.2,76.3l21.2,60.6l18.7-6.6
				l-21.2-60.6c56.4-25.1,85-89.7,64.2-149C696.1,163,627.7,130.2,565.3,152.1z M700.9,231.5c18.6,53-9.3,111-62.3,129.6
				s-111-9.3-129.6-62.3s9.3-111,62.3-129.6S682.3,178.5,700.9,231.5z"/>
			<path class="st1" d="M739.5,647.5c-8.1,2.8-16.9-1.4-19.8-9.5l-81.4-230.8l29.3-10.3L749,627.7
				C751.9,635.8,747.6,644.7,739.5,647.5z"/>
		</g>
		<path class="st8" d="M701.6,567c-3.4-1.2-6.3,8.1-10.2,15c-1.7,3-4,9.1-5.5,15.4l12.9-14.3C700.7,575.7,703.3,567.6,701.6,567z"/>
	</g>
</g>
</svg>
